<?xml version="1.0" encoding="us-ascii" standalone="no"?><svg xmlns="http://www.w3.org/2000/svg" xmlns:xlink="http://www.w3.org/1999/xlink" contentStyleType="text/css" height="1320px" preserveAspectRatio="none" style="width:827px;height:1320px;background:#FFFFFF;" version="1.1" viewBox="0 0 827 1320" width="827px" zoomAndPan="magnify"><defs/><g><text fill="#000000" font-family="sans-serif" font-size="14" font-weight="bold" lengthAdjust="spacing" textLength="192" x="319" y="29.5332">method : draw with blinking</text><rect fill="#FFFFFF" height="100.0547" style="stroke:#181818;stroke-width:1.0;" width="10" x="199" y="197.625"/><rect fill="#FFFFFF" height="65.7031" style="stroke:#181818;stroke-width:1.0;" width="10" x="199" y="368.3828"/><rect fill="#FFFFFF" height="28" style="stroke:#181818;stroke-width:1.0;" width="10" x="199" y="504.7891"/><rect fill="#FFFFFF" height="49.3516" style="stroke:#181818;stroke-width:1.0;" width="10" x="199" y="737.7344"/><rect fill="#FFFFFF" height="49.3516" style="stroke:#181818;stroke-width:1.0;" width="10" x="199" y="949.8438"/><rect fill="#FFFFFF" height="49.3516" style="stroke:#181818;stroke-width:1.0;" width="10" x="199" y="1076.8984"/><rect fill="#FFFFFF" height="64.7031" style="stroke:#181818;stroke-width:1.0;" width="10" x="401" y="232.9766"/><rect fill="#FFFFFF" height="30.3516" style="stroke:#181818;stroke-width:1.0;" width="10" x="401" y="611.3281"/><rect fill="#FFFFFF" height="48.3516" style="stroke:#181818;stroke-width:1.0;" width="10" x="401" y="1188.9531"/><rect fill="#FFFFFF" height="30.3516" style="stroke:#181818;stroke-width:1.0;" width="10" x="543" y="403.7344"/><rect fill="#FFFFFF" height="14" style="stroke:#181818;stroke-width:1.0;" width="10" x="684" y="773.0859"/><rect fill="#FFFFFF" height="14" style="stroke:#181818;stroke-width:1.0;" width="10" x="684" y="985.1953"/><rect fill="#FFFFFF" height="14" style="stroke:#181818;stroke-width:1.0;" width="10" x="684" y="1112.25"/><rect fill="none" height="1142.7344" style="stroke:#000000;stroke-width:1.5;" width="811" x="10" y="123.5703"/><rect fill="none" height="156.7578" style="stroke:#000000;stroke-width:1.5;" width="479" x="20" y="148.9219"/><rect fill="none" height="122.4063" style="stroke:#000000;stroke-width:1.5;" width="453" x="154" y="319.6797"/><rect fill="none" height="803.2188" style="stroke:#000000;stroke-width:1.5;" width="751" x="60" y="456.0859"/><rect fill="none" height="79.0547" style="stroke:#000000;stroke-width:1.5;" width="345" x="154" y="570.625"/><rect fill="none" height="588.625" style="stroke:#000000;stroke-width:1.5;" width="731" x="70" y="663.6797"/><rect fill="none" height="106.0547" style="stroke:#000000;stroke-width:1.5;" width="627" x="154" y="689.0313"/><rect fill="none" height="52.7031" style="stroke:#000000;stroke-width:1.5;" width="248" x="80" y="809.0859"/><rect fill="none" height="138.4063" style="stroke:#000000;stroke-width:1.5;" width="647" x="144" y="875.7891"/><rect fill="none" height="106.0547" style="stroke:#000000;stroke-width:1.5;" width="627" x="154" y="901.1406"/><rect fill="none" height="106.0547" style="stroke:#000000;stroke-width:1.5;" width="627" x="154" y="1028.1953"/><rect fill="none" height="97.0547" style="stroke:#000000;stroke-width:1.5;" width="345" x="154" y="1148.25"/><line style="stroke:#181818;stroke-width:0.5;stroke-dasharray:5.0,5.0;" x1="204" x2="204" y1="76.2188" y2="1313.6563"/><line style="stroke:#181818;stroke-width:0.5;stroke-dasharray:5.0,5.0;" x1="406" x2="406" y1="76.2188" y2="1313.6563"/><line style="stroke:#181818;stroke-width:0.5;stroke-dasharray:5.0,5.0;" x1="548" x2="548" y1="76.2188" y2="1313.6563"/><line style="stroke:#181818;stroke-width:0.5;stroke-dasharray:5.0,5.0;" x1="689" x2="689" y1="76.2188" y2="1313.6563"/><rect fill="#E2E2F0" height="31.6094" rx="2.5" ry="2.5" style="stroke:#181818;stroke-width:0.5;" width="80" x="164" y="43.6094"/><text fill="#000000" font-family="sans-serif" font-size="14" lengthAdjust="spacing" textLength="66" x="171" y="65.1426">my_widget</text><rect fill="#E2E2F0" height="31.6094" rx="2.5" ry="2.5" style="stroke:#181818;stroke-width:0.5;" width="166" x="323" y="43.6094"/><text fill="#000000" font-family="sans-serif" font-size="14" lengthAdjust="spacing" textLength="152" x="330" y="65.1426">actual_displayed_model</text><rect fill="#E2E2F0" height="31.6094" rx="2.5" ry="2.5" style="stroke:#181818;stroke-width:0.5;" width="98" x="499" y="43.6094"/><text fill="#000000" font-family="sans-serif" font-size="14" lengthAdjust="spacing" textLength="84" x="506" y="65.1426">system_clock</text><rect fill="#E2E2F0" height="31.6094" rx="2.5" ry="2.5" style="stroke:#181818;stroke-width:0.5;" width="164" x="607" y="43.6094"/><text fill="#000000" font-family="sans-serif" font-size="14" lengthAdjust="spacing" textLength="150" x="614" y="65.1426">graphic_display_screen</text><rect fill="#FFFFFF" height="100.0547" style="stroke:#181818;stroke-width:1.0;" width="10" x="199" y="197.625"/><rect fill="#FFFFFF" height="65.7031" style="stroke:#181818;stroke-width:1.0;" width="10" x="199" y="368.3828"/><rect fill="#FFFFFF" height="28" style="stroke:#181818;stroke-width:1.0;" width="10" x="199" y="504.7891"/><rect fill="#FFFFFF" height="49.3516" style="stroke:#181818;stroke-width:1.0;" width="10" x="199" y="737.7344"/><rect fill="#FFFFFF" height="49.3516" style="stroke:#181818;stroke-width:1.0;" width="10" x="199" y="949.8438"/><rect fill="#FFFFFF" height="49.3516" style="stroke:#181818;stroke-width:1.0;" width="10" x="199" y="1076.8984"/><rect fill="#FFFFFF" height="64.7031" style="stroke:#181818;stroke-width:1.0;" width="10" x="401" y="232.9766"/><rect fill="#FFFFFF" height="30.3516" style="stroke:#181818;stroke-width:1.0;" width="10" x="401" y="611.3281"/><rect fill="#FFFFFF" height="48.3516" style="stroke:#181818;stroke-width:1.0;" width="10" x="401" y="1188.9531"/><rect fill="#FFFFFF" height="30.3516" style="stroke:#181818;stroke-width:1.0;" width="10" x="543" y="403.7344"/><rect fill="#FFFFFF" height="14" style="stroke:#181818;stroke-width:1.0;" width="10" x="684" y="773.0859"/><rect fill="#FFFFFF" height="14" style="stroke:#181818;stroke-width:1.0;" width="10" x="684" y="985.1953"/><rect fill="#FFFFFF" height="14" style="stroke:#181818;stroke-width:1.0;" width="10" x="684" y="1112.25"/><polygon fill="#181818" points="192,104.5703,202,108.5703,192,112.5703" style="stroke:#181818;stroke-width:1.0;"/><line style="stroke:#181818;stroke-width:1.0;" x1="0" x2="198" y1="108.5703" y2="108.5703"/><text fill="#000000" font-family="sans-serif" font-size="13" lengthAdjust="spacing" textLength="35" x="84.5" y="103.7139">draw()</text><path d="M10,123.5703 L83,123.5703 L83,131.9219 L73,141.9219 L10,141.9219 L10,123.5703 " fill="#EEEEEE" style="stroke:#000000;stroke-width:1.5;"/><rect fill="none" height="1142.7344" style="stroke:#000000;stroke-width:1.5;" width="811" x="10" y="123.5703"/><text fill="#000000" font-family="sans-serif" font-size="13" font-weight="bold" lengthAdjust="spacing" textLength="28" x="25" y="138.0654">loop</text><text fill="#000000" font-family="sans-serif" font-size="11" font-weight="bold" lengthAdjust="spacing" textLength="94" x="98" y="136.9893">[for each widget]</text><path d="M20,148.9219 L268,148.9219 L268,157.2734 L258,167.2734 L20,167.2734 L20,148.9219 " fill="#EEEEEE" style="stroke:#000000;stroke-width:1.5;"/><rect fill="none" height="156.7578" style="stroke:#000000;stroke-width:1.5;" width="479" x="20" y="148.9219"/><text fill="#000000" font-family="sans-serif" font-size="13" font-weight="bold" lengthAdjust="spacing" textLength="203" x="35" y="163.417">get value of interest from model</text><line style="stroke:#181818;stroke-width:1.0;" x1="204" x2="251" y1="184.625" y2="184.625"/><line style="stroke:#181818;stroke-width:1.0;" x1="251" x2="251" y1="184.625" y2="197.625"/><line style="stroke:#181818;stroke-width:1.0;" x1="210" x2="251" y1="197.625" y2="197.625"/><polygon fill="#181818" points="220,193.625,210,197.625,220,201.625" style="stroke:#181818;stroke-width:1.0;"/><text fill="#000000" font-family="sans-serif" font-size="13" lengthAdjust="spacing" textLength="129" x="216" y="179.7686">get_value_of_interest()</text><polygon fill="#181818" points="389,228.9766,399,232.9766,389,236.9766" style="stroke:#181818;stroke-width:1.0;"/><line style="stroke:#181818;stroke-width:1.0;" x1="209" x2="395" y1="232.9766" y2="232.9766"/><text fill="#000000" font-family="sans-serif" font-size="13" lengthAdjust="spacing" textLength="173" x="218.5" y="228.1201">read values and process them</text><rect fill="#FEFFDD" height="24" style="stroke:#181818;stroke-width:0.5;" width="348" x="30" y="245.9766"/><text fill="#000000" font-family="sans-serif" font-size="13" lengthAdjust="spacing" textLength="340" x="34" y="263.4717">specific to the implemented widget and the attached model</text><polygon fill="#181818" points="215,293.6797,205,297.6797,215,301.6797" style="stroke:#181818;stroke-width:1.0;"/><line style="stroke:#181818;stroke-width:1.0;" x1="209" x2="405" y1="297.6797" y2="297.6797"/><text fill="#000000" font-family="sans-serif" font-size="13" lengthAdjust="spacing" textLength="36" x="287" y="292.8232">values</text><path d="M154,319.6797 L291,319.6797 L291,328.0313 L281,338.0313 L154,338.0313 L154,319.6797 " fill="#EEEEEE" style="stroke:#000000;stroke-width:1.5;"/><rect fill="none" height="122.4063" style="stroke:#000000;stroke-width:1.5;" width="453" x="154" y="319.6797"/><text fill="#000000" font-family="sans-serif" font-size="13" font-weight="bold" lengthAdjust="spacing" textLength="92" x="169" y="334.1748">check blinking</text><line style="stroke:#181818;stroke-width:1.0;" x1="204" x2="251" y1="355.3828" y2="355.3828"/><line style="stroke:#181818;stroke-width:1.0;" x1="251" x2="251" y1="355.3828" y2="368.3828"/><line style="stroke:#181818;stroke-width:1.0;" x1="210" x2="251" y1="368.3828" y2="368.3828"/><polygon fill="#181818" points="220,364.3828,210,368.3828,220,372.3828" style="stroke:#181818;stroke-width:1.0;"/><text fill="#000000" font-family="sans-serif" font-size="13" lengthAdjust="spacing" textLength="151" x="216" y="350.5264">compute_blinking_phase()</text><polygon fill="#181818" points="531,399.7344,541,403.7344,531,407.7344" style="stroke:#181818;stroke-width:1.0;"/><line style="stroke:#181818;stroke-width:1.0;" x1="209" x2="537" y1="403.7344" y2="403.7344"/><text fill="#000000" font-family="sans-serif" font-size="13" lengthAdjust="spacing" textLength="94" x="329" y="398.8779">get system time</text><polygon fill="#181818" points="215,430.0859,205,434.0859,215,438.0859" style="stroke:#181818;stroke-width:1.0;"/><line style="stroke:#181818;stroke-width:1.0;" x1="209" x2="547" y1="434.0859" y2="434.0859"/><text fill="#000000" font-family="sans-serif" font-size="13" lengthAdjust="spacing" textLength="201" x="275.5" y="429.2295">blink_phase_changed = true | false</text><path d="M60,456.0859 L121,456.0859 L121,464.4375 L111,474.4375 L60,474.4375 L60,456.0859 " fill="#EEEEEE" style="stroke:#000000;stroke-width:1.5;"/><rect fill="none" height="803.2188" style="stroke:#000000;stroke-width:1.5;" width="751" x="60" y="456.0859"/><text fill="#000000" font-family="sans-serif" font-size="13" font-weight="bold" lengthAdjust="spacing" textLength="16" x="75" y="470.5811">alt</text><text fill="#000000" font-family="sans-serif" font-size="11" font-weight="bold" lengthAdjust="spacing" textLength="163" x="136" y="469.5049">[blink_phase_changed = true]</text><line style="stroke:#181818;stroke-width:1.0;" x1="209" x2="251" y1="496.7891" y2="496.7891"/><line style="stroke:#181818;stroke-width:1.0;" x1="251" x2="251" y1="496.7891" y2="509.7891"/><line style="stroke:#181818;stroke-width:1.0;" x1="210" x2="251" y1="509.7891" y2="509.7891"/><polygon fill="#181818" points="220,505.7891,210,509.7891,220,513.7891" style="stroke:#181818;stroke-width:1.0;"/><text fill="#000000" font-family="sans-serif" font-size="13" lengthAdjust="spacing" textLength="126" x="216" y="491.9326">make the widget blink</text><line style="stroke:#000000;stroke-width:1.0;stroke-dasharray:2.0,2.0;" x1="60" x2="811" y1="548.7891" y2="548.7891"/><text fill="#000000" font-family="sans-serif" font-size="11" font-weight="bold" lengthAdjust="spacing" textLength="167" x="65" y="560.208">[blink_phase_changed = false]</text><path d="M154,570.625 L377,570.625 L377,578.9766 L367,588.9766 L154,588.9766 L154,570.625 " fill="#EEEEEE" style="stroke:#000000;stroke-width:1.5;"/><rect fill="none" height="79.0547" style="stroke:#000000;stroke-width:1.5;" width="345" x="154" y="570.625"/><text fill="#000000" font-family="sans-serif" font-size="13" font-weight="bold" lengthAdjust="spacing" textLength="178" x="169" y="585.1201">check if model has changed</text><polygon fill="#181818" points="389,607.3281,399,611.3281,389,615.3281" style="stroke:#181818;stroke-width:1.0;"/><line style="stroke:#181818;stroke-width:1.0;" x1="204" x2="395" y1="611.3281" y2="611.3281"/><text fill="#000000" font-family="sans-serif" font-size="13" lengthAdjust="spacing" textLength="85" x="260" y="606.4717">has_changed()</text><polygon fill="#181818" points="215,637.6797,205,641.6797,215,645.6797" style="stroke:#181818;stroke-width:1.0;"/><line style="stroke:#181818;stroke-width:1.0;" x1="209" x2="405" y1="641.6797" y2="641.6797"/><text fill="#000000" font-family="sans-serif" font-size="13" lengthAdjust="spacing" textLength="69" x="270.5" y="636.8232">change_flag</text><path d="M70,663.6797 L131,663.6797 L131,672.0313 L121,682.0313 L70,682.0313 L70,663.6797 " fill="#EEEEEE" style="stroke:#000000;stroke-width:1.5;"/><rect fill="none" height="588.625" style="stroke:#000000;stroke-width:1.5;" width="731" x="70" y="663.6797"/><text fill="#000000" font-family="sans-serif" font-size="13" font-weight="bold" lengthAdjust="spacing" textLength="16" x="85" y="678.1748">alt</text><text fill="#000000" font-family="sans-serif" font-size="11" font-weight="bold" lengthAdjust="spacing" textLength="95" x="146" y="677.0986">[change_flag != 0]</text><path d="M154,689.0313 L308,689.0313 L308,697.3828 L298,707.3828 L154,707.3828 L154,689.0313 " fill="#EEEEEE" style="stroke:#000000;stroke-width:1.5;"/><rect fill="none" height="106.0547" style="stroke:#000000;stroke-width:1.5;" width="627" x="154" y="689.0313"/><text fill="#000000" font-family="sans-serif" font-size="13" font-weight="bold" lengthAdjust="spacing" textLength="109" x="169" y="703.5264">clear pixel buffer</text><line style="stroke:#181818;stroke-width:1.0;" x1="204" x2="251" y1="724.7344" y2="724.7344"/><line style="stroke:#181818;stroke-width:1.0;" x1="251" x2="251" y1="724.7344" y2="737.7344"/><line style="stroke:#181818;stroke-width:1.0;" x1="210" x2="251" y1="737.7344" y2="737.7344"/><polygon fill="#181818" points="220,733.7344,210,737.7344,220,741.7344" style="stroke:#181818;stroke-width:1.0;"/><text fill="#000000" font-family="sans-serif" font-size="13" lengthAdjust="spacing" textLength="108" x="216" y="719.8779">clear_pixel_buffer()</text><polygon fill="#181818" points="672,769.0859,682,773.0859,672,777.0859" style="stroke:#181818;stroke-width:1.0;"/><line style="stroke:#181818;stroke-width:1.0;" x1="209" x2="678" y1="773.0859" y2="773.0859"/><text fill="#000000" font-family="sans-serif" font-size="13" lengthAdjust="spacing" textLength="183" x="355" y="768.2295">clear_pixel_buffer(&amp;pixel_frame)</text><polygon fill="#181818" points="215,783.0859,205,787.0859,215,791.0859" style="stroke:#181818;stroke-width:1.0;"/><line style="stroke:#181818;stroke-width:1.0;stroke-dasharray:2.0,2.0;" x1="209" x2="688" y1="787.0859" y2="787.0859"/><path d="M80,809.0859 L224,809.0859 L224,817.4375 L214,827.4375 L80,827.4375 L80,809.0859 " fill="#EEEEEE" style="stroke:#000000;stroke-width:1.5;"/><rect fill="none" height="52.7031" style="stroke:#000000;stroke-width:1.5;" width="248" x="80" y="809.0859"/><text fill="#000000" font-family="sans-serif" font-size="13" font-weight="bold" lengthAdjust="spacing" textLength="99" x="95" y="823.5811">widget drawing</text><rect fill="#FEFFDD" height="24" style="stroke:#181818;stroke-width:0.5;" width="228" x="90" y="832.4375"/><text fill="#000000" font-family="sans-serif" font-size="13" lengthAdjust="spacing" textLength="220" x="94" y="849.9326">specific to the effective widget drawing</text><path d="M144,875.7891 L306,875.7891 L306,884.1406 L296,894.1406 L144,894.1406 L144,875.7891 " fill="#EEEEEE" style="stroke:#000000;stroke-width:1.5;"/><rect fill="none" height="138.4063" style="stroke:#000000;stroke-width:1.5;" width="647" x="144" y="875.7891"/><text fill="#000000" font-family="sans-serif" font-size="13" font-weight="bold" lengthAdjust="spacing" textLength="117" x="159" y="890.2842">draw border if any</text><path d="M154,901.1406 L215,901.1406 L215,909.4922 L205,919.4922 L154,919.4922 L154,901.1406 " fill="#EEEEEE" style="stroke:#000000;stroke-width:1.5;"/><rect fill="none" height="106.0547" style="stroke:#000000;stroke-width:1.5;" width="627" x="154" y="901.1406"/><text fill="#000000" font-family="sans-serif" font-size="13" font-weight="bold" lengthAdjust="spacing" textLength="16" x="169" y="915.6357">alt</text><text fill="#000000" font-family="sans-serif" font-size="11" font-weight="bold" lengthAdjust="spacing" textLength="161" x="230" y="914.5596">[widget_with_border == true]</text><line style="stroke:#181818;stroke-width:1.0;" x1="204" x2="251" y1="936.8438" y2="936.8438"/><line style="stroke:#181818;stroke-width:1.0;" x1="251" x2="251" y1="936.8438" y2="949.8438"/><line style="stroke:#181818;stroke-width:1.0;" x1="210" x2="251" y1="949.8438" y2="949.8438"/><polygon fill="#181818" points="220,945.8438,210,949.8438,220,953.8438" style="stroke:#181818;stroke-width:1.0;"/><text fill="#000000" font-family="sans-serif" font-size="13" lengthAdjust="spacing" textLength="132" x="216" y="931.9873">rect(around the widget)</text><polygon fill="#181818" points="672,981.1953,682,985.1953,672,989.1953" style="stroke:#181818;stroke-width:1.0;"/><line style="stroke:#181818;stroke-width:1.0;" x1="209" x2="678" y1="985.1953" y2="985.1953"/><text fill="#000000" font-family="sans-serif" font-size="13" lengthAdjust="spacing" textLength="53" x="420" y="980.3389">pixel(x,y)</text><polygon fill="#181818" points="215,995.1953,205,999.1953,215,1003.1953" style="stroke:#181818;stroke-width:1.0;"/><line style="stroke:#181818;stroke-width:1.0;stroke-dasharray:2.0,2.0;" x1="209" x2="688" y1="999.1953" y2="999.1953"/><path d="M154,1028.1953 L341,1028.1953 L341,1036.5469 L331,1046.5469 L154,1046.5469 L154,1028.1953 " fill="#EEEEEE" style="stroke:#000000;stroke-width:1.5;"/><rect fill="none" height="106.0547" style="stroke:#000000;stroke-width:1.5;" width="627" x="154" y="1028.1953"/><text fill="#000000" font-family="sans-serif" font-size="13" font-weight="bold" lengthAdjust="spacing" textLength="142" x="169" y="1042.6904">show widget to screen</text><line style="stroke:#181818;stroke-width:1.0;" x1="204" x2="251" y1="1063.8984" y2="1063.8984"/><line style="stroke:#181818;stroke-width:1.0;" x1="251" x2="251" y1="1063.8984" y2="1076.8984"/><line style="stroke:#181818;stroke-width:1.0;" x1="210" x2="251" y1="1076.8984" y2="1076.8984"/><polygon fill="#181818" points="220,1072.8984,210,1076.8984,220,1080.8984" style="stroke:#181818;stroke-width:1.0;"/><text fill="#000000" font-family="sans-serif" font-size="13" lengthAdjust="spacing" textLength="38" x="216" y="1059.042">show()</text><polygon fill="#181818" points="672,1108.25,682,1112.25,672,1116.25" style="stroke:#181818;stroke-width:1.0;"/><line style="stroke:#181818;stroke-width:1.0;" x1="209" x2="678" y1="1112.25" y2="1112.25"/><text fill="#000000" font-family="sans-serif" font-size="13" lengthAdjust="spacing" textLength="226" x="333.5" y="1107.3936">show(pixel_frame, anchor_x, anchor_y)</text><polygon fill="#181818" points="215,1122.25,205,1126.25,215,1130.25" style="stroke:#181818;stroke-width:1.0;"/><line style="stroke:#181818;stroke-width:1.0;stroke-dasharray:2.0,2.0;" x1="209" x2="688" y1="1126.25" y2="1126.25"/><path d="M154,1148.25 L293,1148.25 L293,1156.6016 L283,1166.6016 L154,1166.6016 L154,1148.25 " fill="#EEEEEE" style="stroke:#000000;stroke-width:1.5;"/><rect fill="none" height="97.0547" style="stroke:#000000;stroke-width:1.5;" width="345" x="154" y="1148.25"/><text fill="#000000" font-family="sans-serif" font-size="13" font-weight="bold" lengthAdjust="spacing" textLength="94" x="169" y="1162.7451">ack draw done</text><polygon fill="#181818" points="389,1184.9531,399,1188.9531,389,1192.9531" style="stroke:#181818;stroke-width:1.0;"/><line style="stroke:#181818;stroke-width:1.0;" x1="204" x2="395" y1="1188.9531" y2="1188.9531"/><text fill="#000000" font-family="sans-serif" font-size="13" lengthAdjust="spacing" textLength="114" x="245.5" y="1184.0967">ack_widget_drawn()</text><rect fill="#FEFFDD" height="24" style="stroke:#181818;stroke-width:0.5;" width="104" x="354" y="1201.9531"/><text fill="#000000" font-family="sans-serif" font-size="13" lengthAdjust="spacing" textLength="96" x="358" y="1219.4482">change_flag -= 1</text><polygon fill="#181818" points="215,1233.3047,205,1237.3047,215,1241.3047" style="stroke:#181818;stroke-width:1.0;"/><line style="stroke:#181818;stroke-width:1.0;stroke-dasharray:2.0,2.0;" x1="209" x2="405" y1="1237.3047" y2="1237.3047"/><polygon fill="#181818" points="11,1291.6563,1,1295.6563,11,1299.6563" style="stroke:#181818;stroke-width:1.0;"/><line style="stroke:#181818;stroke-width:1.0;" x1="5" x2="203" y1="1295.6563" y2="1295.6563"/><text fill="#000000" font-family="sans-serif" font-size="13" lengthAdjust="spacing" textLength="33" x="85.5" y="1290.7998">return</text><!--SRC=[bLJBRjim4BppAxQN8a5YeBqQjO5-G4yzva0mv4eYp8TAKdu0_VWkIScHqYfs3LYmnPdPsU6IIIU3O35rNi4ML10dEEdKmQlHxg1Too8zUn64XPWkX8qfQ9a6QsOhF_7NW4xY3unHjFZTwDPPT0aaFJ0mzhBPWxtmarOjfh7EmoC3-Z3ZVG-D3u12Tb0Xh0r-w263Zy8C2Bu1dQKm9cY2js2zGiEkcflzc_pJqpOpUM5ot_29IHK5MHU6Anrx8oweUD61RnjOyWCALKj744v17xoavY1rQ5bmFf6b8uP5Kx57gHij8VcC0srxWpa6L6DRHIelYPIeMNfVsrXnjGXjizcEXfYYf98-2Z9nNMVer9WQ2Sl3smRE9FQBBicozBOV4l89pFjEHAIS5gHuYGajbyQJRk7bXVeMahOuWrEI2tYsNTIhD9UTS2qrleCKQ5z_GoDCnFMMc33f0u7rxhPWnG5BskExelBlIcKGaOoibAec2uejKjPDtK8W0epukuUCE5EDzT7yQmWgWpT6j2MX7D3i7NpQmPUhIOCYGA_F9FGwD0sTnGy2AsXUqBoYtqz26qJVQJcPv546HBT6_bp_DNH5u2CBc8RWRWtlM2jV47buxpngIFMoAhxdbn6gokLkU_L1aHPjct2N4bqby7pfyN5rTtks0fLx4AGx7kYwT7zQ9Pc7y_FbTYvlsSJEdwO6gV4gDxy3tn_lJFYFBIpmsPuzKqYoyu6Vhx_ky3kQ5NGwIkJAEuIbXvLHpnw8DW9vPZkoFvk15UBYKC1c1rydbrE0q_TbVWZpDcRK7m00]--></g></svg>