<?xml version="1.0" encoding="us-ascii" standalone="no"?><svg xmlns="http://www.w3.org/2000/svg" xmlns:xlink="http://www.w3.org/1999/xlink" contentStyleType="text/css" height="943px" preserveAspectRatio="none" style="width:606px;height:943px;background:#FFFFFF;" version="1.1" viewBox="0 0 606 943" width="606px" zoomAndPan="magnify"><defs/><g><text fill="#000000" font-family="sans-serif" font-size="14" font-weight="bold" lengthAdjust="spacing" textLength="99" x="255" y="29.5332">method : draw</text><rect fill="#FFFFFF" height="49.3516" style="stroke:#181818;stroke-width:1.0;" width="10" x="199" y="586.8438"/><rect fill="#FFFFFF" height="49.3516" style="stroke:#181818;stroke-width:1.0;" width="10" x="199" y="713.8984"/><rect fill="#FFFFFF" height="30.3516" style="stroke:#181818;stroke-width:1.0;" width="10" x="352" y="164.2734"/><rect fill="#FFFFFF" height="64.7031" style="stroke:#181818;stroke-width:1.0;" width="10" x="352" y="359.3828"/><rect fill="#FFFFFF" height="48.3516" style="stroke:#181818;stroke-width:1.0;" width="10" x="352" y="825.9531"/><rect fill="#FFFFFF" height="14" style="stroke:#181818;stroke-width:1.0;" width="10" x="483" y="282.6797"/><rect fill="#FFFFFF" height="14" style="stroke:#181818;stroke-width:1.0;" width="10" x="483" y="622.1953"/><rect fill="#FFFFFF" height="14" style="stroke:#181818;stroke-width:1.0;" width="10" x="483" y="749.25"/><rect fill="none" height="79.0547" style="stroke:#000000;stroke-width:1.5;" width="283" x="123" y="123.5703"/><rect fill="none" height="672.6797" style="stroke:#000000;stroke-width:1.5;" width="590" x="10" y="216.625"/><rect fill="none" height="62.7031" style="stroke:#000000;stroke-width:1.5;" width="457" x="123" y="241.9766"/><rect fill="none" height="113.4063" style="stroke:#000000;stroke-width:1.5;" width="386" x="20" y="318.6797"/><rect fill="none" height="52.7031" style="stroke:#000000;stroke-width:1.5;" width="248" x="80" y="446.0859"/><rect fill="none" height="138.4063" style="stroke:#000000;stroke-width:1.5;" width="477" x="113" y="512.7891"/><rect fill="none" height="106.0547" style="stroke:#000000;stroke-width:1.5;" width="457" x="123" y="538.1406"/><rect fill="none" height="106.0547" style="stroke:#000000;stroke-width:1.5;" width="457" x="123" y="665.1953"/><rect fill="none" height="97.0547" style="stroke:#000000;stroke-width:1.5;" width="296" x="123" y="785.25"/><line style="stroke:#181818;stroke-width:0.5;stroke-dasharray:5.0,5.0;" x1="204" x2="204" y1="76.2188" y2="936.6563"/><line style="stroke:#181818;stroke-width:0.5;stroke-dasharray:5.0,5.0;" x1="357" x2="357" y1="76.2188" y2="936.6563"/><line style="stroke:#181818;stroke-width:0.5;stroke-dasharray:5.0,5.0;" x1="488" x2="488" y1="76.2188" y2="936.6563"/><rect fill="#E2E2F0" height="31.6094" rx="2.5" ry="2.5" style="stroke:#181818;stroke-width:0.5;" width="142" x="133" y="43.6094"/><text fill="#000000" font-family="sans-serif" font-size="14" lengthAdjust="spacing" textLength="128" x="140" y="65.1426">implemented_widget</text><rect fill="#E2E2F0" height="31.6094" rx="2.5" ry="2.5" style="stroke:#181818;stroke-width:0.5;" width="78" x="318" y="43.6094"/><text fill="#000000" font-family="sans-serif" font-size="14" lengthAdjust="spacing" textLength="64" x="325" y="65.1426">my_model</text><rect fill="#E2E2F0" height="31.6094" rx="2.5" ry="2.5" style="stroke:#181818;stroke-width:0.5;" width="164" x="406" y="43.6094"/><text fill="#000000" font-family="sans-serif" font-size="14" lengthAdjust="spacing" textLength="150" x="413" y="65.1426">graphic_display_screen</text><rect fill="#FFFFFF" height="49.3516" style="stroke:#181818;stroke-width:1.0;" width="10" x="199" y="586.8438"/><rect fill="#FFFFFF" height="49.3516" style="stroke:#181818;stroke-width:1.0;" width="10" x="199" y="713.8984"/><rect fill="#FFFFFF" height="30.3516" style="stroke:#181818;stroke-width:1.0;" width="10" x="352" y="164.2734"/><rect fill="#FFFFFF" height="64.7031" style="stroke:#181818;stroke-width:1.0;" width="10" x="352" y="359.3828"/><rect fill="#FFFFFF" height="48.3516" style="stroke:#181818;stroke-width:1.0;" width="10" x="352" y="825.9531"/><rect fill="#FFFFFF" height="14" style="stroke:#181818;stroke-width:1.0;" width="10" x="483" y="282.6797"/><rect fill="#FFFFFF" height="14" style="stroke:#181818;stroke-width:1.0;" width="10" x="483" y="622.1953"/><rect fill="#FFFFFF" height="14" style="stroke:#181818;stroke-width:1.0;" width="10" x="483" y="749.25"/><polygon fill="#181818" points="192,104.5703,202,108.5703,192,112.5703" style="stroke:#181818;stroke-width:1.0;"/><line style="stroke:#181818;stroke-width:1.0;" x1="0" x2="198" y1="108.5703" y2="108.5703"/><text fill="#000000" font-family="sans-serif" font-size="13" lengthAdjust="spacing" textLength="35" x="84.5" y="103.7139">draw()</text><path d="M123,123.5703 L346,123.5703 L346,131.9219 L336,141.9219 L123,141.9219 L123,123.5703 " fill="#EEEEEE" style="stroke:#000000;stroke-width:1.5;"/><rect fill="none" height="79.0547" style="stroke:#000000;stroke-width:1.5;" width="283" x="123" y="123.5703"/><text fill="#000000" font-family="sans-serif" font-size="13" font-weight="bold" lengthAdjust="spacing" textLength="178" x="138" y="138.0654">check if model has changed</text><polygon fill="#181818" points="340,160.2734,350,164.2734,340,168.2734" style="stroke:#181818;stroke-width:1.0;"/><line style="stroke:#181818;stroke-width:1.0;" x1="204" x2="346" y1="164.2734" y2="164.2734"/><text fill="#000000" font-family="sans-serif" font-size="13" lengthAdjust="spacing" textLength="85" x="235.5" y="159.417">has_changed()</text><polygon fill="#181818" points="215,190.625,205,194.625,215,198.625" style="stroke:#181818;stroke-width:1.0;"/><line style="stroke:#181818;stroke-width:1.0;" x1="209" x2="356" y1="194.625" y2="194.625"/><text fill="#000000" font-family="sans-serif" font-size="13" lengthAdjust="spacing" textLength="69" x="246" y="189.7686">change_flag</text><path d="M10,216.625 L71,216.625 L71,224.9766 L61,234.9766 L10,234.9766 L10,216.625 " fill="#EEEEEE" style="stroke:#000000;stroke-width:1.5;"/><rect fill="none" height="672.6797" style="stroke:#000000;stroke-width:1.5;" width="590" x="10" y="216.625"/><text fill="#000000" font-family="sans-serif" font-size="13" font-weight="bold" lengthAdjust="spacing" textLength="16" x="25" y="231.1201">alt</text><text fill="#000000" font-family="sans-serif" font-size="11" font-weight="bold" lengthAdjust="spacing" textLength="95" x="86" y="230.0439">[change_flag != 0]</text><path d="M123,241.9766 L277,241.9766 L277,250.3281 L267,260.3281 L123,260.3281 L123,241.9766 " fill="#EEEEEE" style="stroke:#000000;stroke-width:1.5;"/><rect fill="none" height="62.7031" style="stroke:#000000;stroke-width:1.5;" width="457" x="123" y="241.9766"/><text fill="#000000" font-family="sans-serif" font-size="13" font-weight="bold" lengthAdjust="spacing" textLength="109" x="138" y="256.4717">clear pixel buffer</text><polygon fill="#181818" points="471,278.6797,481,282.6797,471,286.6797" style="stroke:#181818;stroke-width:1.0;"/><line style="stroke:#181818;stroke-width:1.0;" x1="204" x2="477" y1="282.6797" y2="282.6797"/><text fill="#000000" font-family="sans-serif" font-size="13" lengthAdjust="spacing" textLength="183" x="252" y="277.8232">clear_pixel_buffer(&amp;pixel_frame)</text><polygon fill="#181818" points="215,292.6797,205,296.6797,215,300.6797" style="stroke:#181818;stroke-width:1.0;"/><line style="stroke:#181818;stroke-width:1.0;stroke-dasharray:2.0,2.0;" x1="209" x2="487" y1="296.6797" y2="296.6797"/><path d="M20,318.6797 L268,318.6797 L268,327.0313 L258,337.0313 L20,337.0313 L20,318.6797 " fill="#EEEEEE" style="stroke:#000000;stroke-width:1.5;"/><rect fill="none" height="113.4063" style="stroke:#000000;stroke-width:1.5;" width="386" x="20" y="318.6797"/><text fill="#000000" font-family="sans-serif" font-size="13" font-weight="bold" lengthAdjust="spacing" textLength="203" x="35" y="333.1748">get value of interest from model</text><polygon fill="#181818" points="340,355.3828,350,359.3828,340,363.3828" style="stroke:#181818;stroke-width:1.0;"/><line style="stroke:#181818;stroke-width:1.0;" x1="204" x2="346" y1="359.3828" y2="359.3828"/><text fill="#000000" font-family="sans-serif" font-size="13" lengthAdjust="spacing" textLength="129" x="213.5" y="354.5264">get_value_of_interest()</text><rect fill="#FEFFDD" height="24" style="stroke:#181818;stroke-width:0.5;" width="348" x="30" y="372.3828"/><text fill="#000000" font-family="sans-serif" font-size="13" lengthAdjust="spacing" textLength="340" x="34" y="389.8779">specific to the implemented widget and the attached model</text><polygon fill="#181818" points="215,420.0859,205,424.0859,215,428.0859" style="stroke:#181818;stroke-width:1.0;"/><line style="stroke:#181818;stroke-width:1.0;" x1="209" x2="356" y1="424.0859" y2="424.0859"/><text fill="#000000" font-family="sans-serif" font-size="13" lengthAdjust="spacing" textLength="29" x="266" y="419.2295">value</text><path d="M80,446.0859 L224,446.0859 L224,454.4375 L214,464.4375 L80,464.4375 L80,446.0859 " fill="#EEEEEE" style="stroke:#000000;stroke-width:1.5;"/><rect fill="none" height="52.7031" style="stroke:#000000;stroke-width:1.5;" width="248" x="80" y="446.0859"/><text fill="#000000" font-family="sans-serif" font-size="13" font-weight="bold" lengthAdjust="spacing" textLength="99" x="95" y="460.5811">widget drawing</text><rect fill="#FEFFDD" height="24" style="stroke:#181818;stroke-width:0.5;" width="228" x="90" y="469.4375"/><text fill="#000000" font-family="sans-serif" font-size="13" lengthAdjust="spacing" textLength="220" x="94" y="486.9326">specific to the effective widget drawing</text><path d="M113,512.7891 L275,512.7891 L275,521.1406 L265,531.1406 L113,531.1406 L113,512.7891 " fill="#EEEEEE" style="stroke:#000000;stroke-width:1.5;"/><rect fill="none" height="138.4063" style="stroke:#000000;stroke-width:1.5;" width="477" x="113" y="512.7891"/><text fill="#000000" font-family="sans-serif" font-size="13" font-weight="bold" lengthAdjust="spacing" textLength="117" x="128" y="527.2842">draw border if any</text><path d="M123,538.1406 L184,538.1406 L184,546.4922 L174,556.4922 L123,556.4922 L123,538.1406 " fill="#EEEEEE" style="stroke:#000000;stroke-width:1.5;"/><rect fill="none" height="106.0547" style="stroke:#000000;stroke-width:1.5;" width="457" x="123" y="538.1406"/><text fill="#000000" font-family="sans-serif" font-size="13" font-weight="bold" lengthAdjust="spacing" textLength="16" x="138" y="552.6357">alt</text><text fill="#000000" font-family="sans-serif" font-size="11" font-weight="bold" lengthAdjust="spacing" textLength="161" x="199" y="551.5596">[widget_with_border == true]</text><line style="stroke:#181818;stroke-width:1.0;" x1="204" x2="251" y1="573.8438" y2="573.8438"/><line style="stroke:#181818;stroke-width:1.0;" x1="251" x2="251" y1="573.8438" y2="586.8438"/><line style="stroke:#181818;stroke-width:1.0;" x1="210" x2="251" y1="586.8438" y2="586.8438"/><polygon fill="#181818" points="220,582.8438,210,586.8438,220,590.8438" style="stroke:#181818;stroke-width:1.0;"/><text fill="#000000" font-family="sans-serif" font-size="13" lengthAdjust="spacing" textLength="132" x="216" y="568.9873">rect(around the widget)</text><polygon fill="#181818" points="471,618.1953,481,622.1953,471,626.1953" style="stroke:#181818;stroke-width:1.0;"/><line style="stroke:#181818;stroke-width:1.0;" x1="209" x2="477" y1="622.1953" y2="622.1953"/><text fill="#000000" font-family="sans-serif" font-size="13" lengthAdjust="spacing" textLength="53" x="319.5" y="617.3389">pixel(x,y)</text><polygon fill="#181818" points="215,632.1953,205,636.1953,215,640.1953" style="stroke:#181818;stroke-width:1.0;"/><line style="stroke:#181818;stroke-width:1.0;stroke-dasharray:2.0,2.0;" x1="209" x2="487" y1="636.1953" y2="636.1953"/><path d="M123,665.1953 L310,665.1953 L310,673.5469 L300,683.5469 L123,683.5469 L123,665.1953 " fill="#EEEEEE" style="stroke:#000000;stroke-width:1.5;"/><rect fill="none" height="106.0547" style="stroke:#000000;stroke-width:1.5;" width="457" x="123" y="665.1953"/><text fill="#000000" font-family="sans-serif" font-size="13" font-weight="bold" lengthAdjust="spacing" textLength="142" x="138" y="679.6904">show widget to screen</text><line style="stroke:#181818;stroke-width:1.0;" x1="204" x2="251" y1="700.8984" y2="700.8984"/><line style="stroke:#181818;stroke-width:1.0;" x1="251" x2="251" y1="700.8984" y2="713.8984"/><line style="stroke:#181818;stroke-width:1.0;" x1="210" x2="251" y1="713.8984" y2="713.8984"/><polygon fill="#181818" points="220,709.8984,210,713.8984,220,717.8984" style="stroke:#181818;stroke-width:1.0;"/><text fill="#000000" font-family="sans-serif" font-size="13" lengthAdjust="spacing" textLength="38" x="216" y="696.042">show()</text><polygon fill="#181818" points="471,745.25,481,749.25,471,753.25" style="stroke:#181818;stroke-width:1.0;"/><line style="stroke:#181818;stroke-width:1.0;" x1="209" x2="477" y1="749.25" y2="749.25"/><text fill="#000000" font-family="sans-serif" font-size="13" lengthAdjust="spacing" textLength="226" x="233" y="744.3936">show(pixel_frame, anchor_x, anchor_y)</text><polygon fill="#181818" points="215,759.25,205,763.25,215,767.25" style="stroke:#181818;stroke-width:1.0;"/><line style="stroke:#181818;stroke-width:1.0;stroke-dasharray:2.0,2.0;" x1="209" x2="487" y1="763.25" y2="763.25"/><path d="M123,785.25 L262,785.25 L262,793.6016 L252,803.6016 L123,803.6016 L123,785.25 " fill="#EEEEEE" style="stroke:#000000;stroke-width:1.5;"/><rect fill="none" height="97.0547" style="stroke:#000000;stroke-width:1.5;" width="296" x="123" y="785.25"/><text fill="#000000" font-family="sans-serif" font-size="13" font-weight="bold" lengthAdjust="spacing" textLength="94" x="138" y="799.7451">ack draw done</text><polygon fill="#181818" points="340,821.9531,350,825.9531,340,829.9531" style="stroke:#181818;stroke-width:1.0;"/><line style="stroke:#181818;stroke-width:1.0;" x1="204" x2="346" y1="825.9531" y2="825.9531"/><text fill="#000000" font-family="sans-serif" font-size="13" lengthAdjust="spacing" textLength="114" x="221" y="821.0967">ack_widget_drawn()</text><rect fill="#FEFFDD" height="24" style="stroke:#181818;stroke-width:0.5;" width="104" x="305" y="838.9531"/><text fill="#000000" font-family="sans-serif" font-size="13" lengthAdjust="spacing" textLength="96" x="309" y="856.4482">change_flag -= 1</text><polygon fill="#181818" points="215,870.3047,205,874.3047,215,878.3047" style="stroke:#181818;stroke-width:1.0;"/><line style="stroke:#181818;stroke-width:1.0;stroke-dasharray:2.0,2.0;" x1="209" x2="356" y1="874.3047" y2="874.3047"/><polygon fill="#181818" points="11,914.6563,1,918.6563,11,922.6563" style="stroke:#181818;stroke-width:1.0;"/><line style="stroke:#181818;stroke-width:1.0;" x1="5" x2="203" y1="918.6563" y2="918.6563"/><text fill="#000000" font-family="sans-serif" font-size="13" lengthAdjust="spacing" textLength="33" x="85.5" y="913.7998">return</text><!--SRC=[dLHDRzim3BtxLt2N8a5hOBi6Iu7-W9rwx45G9SeMQakUH2VnlnybAvvREC2oYsppu_7naJ9PwX1wfDPhE80Eybp53-i66MGFaIRsHWfMqTXtAyyh_XxHAVo5CSe6NphRk1uTWU83G_LMFuFjXmwJ4RKuMzqWbGgxVTK4FmwWMbGVO0tqNcC7hOniagv1NVMJc8q_wosWnyT32XSbd16NXEtATNqesC9qigdGwKfsjBR1joDyhwxKEfG11djXnFVH6Evf2_KPcY27rYgXRHmwEOce0gBB13E6o1XYnjWzp5-6DSHz5P36u3ANkMh2FCbkHF06R58I8u49lfyb-XTP-2aoXl16N35OeE0yCUu9m_Paue3A6gk0F52Bwo0eGTBfx994acUdlvAwBNqcj6gqkD8sMDVSpGrPJ4NsX5-1KeLI8fdWtGUTG0rpd_B0vmI6fbOKx_4859ZUze1lo1oOm4vofQB9xDhVloLv8tQNfsdP1uqoDIS9Duhd5lyA6Lj_leh0uiou6oHkDPB4POZTVn3FUQjzVcADLUk3k2nlz_HK6fByHyYZqzuXt62rR5pYmHd59LAY-xphI-Yd-m_r4Nwixry-tZPlLPfrYli3]--></g></svg>