<?xml version="1.0" encoding="us-ascii" standalone="no"?><svg xmlns="http://www.w3.org/2000/svg" xmlns:xlink="http://www.w3.org/1999/xlink" contentStyleType="text/css" height="1277px" preserveAspectRatio="none" style="width:858px;height:1277px;background:#FFFFFF;" version="1.1" viewBox="0 0 858 1277" width="858px" zoomAndPan="magnify"><defs/><g><text fill="#000000" font-family="sans-serif" font-size="14" font-weight="bold" lengthAdjust="spacing" textLength="99" x="381" y="29.5332">method : draw</text><rect fill="#FFFFFF" height="144.4063" style="stroke:#181818;stroke-width:1.0;" width="10" x="209" y="197.625"/><rect fill="#FFFFFF" height="49.3516" style="stroke:#181818;stroke-width:1.0;" width="10" x="209" y="531.1406"/><rect fill="#FFFFFF" height="100.0547" style="stroke:#181818;stroke-width:1.0;" width="10" x="209" y="651.1953"/><rect fill="#FFFFFF" height="49.3516" style="stroke:#181818;stroke-width:1.0;" width="10" x="209" y="914.0078"/><rect fill="#FFFFFF" height="49.3516" style="stroke:#181818;stroke-width:1.0;" width="10" x="209" y="1041.0625"/><rect fill="#FFFFFF" height="30.3516" style="stroke:#181818;stroke-width:1.0;" width="10" x="408" y="267.3281"/><rect fill="#FFFFFF" height="14" style="stroke:#181818;stroke-width:1.0;" width="10" x="550" y="328.0313"/><rect fill="#FFFFFF" height="30.3516" style="stroke:#181818;stroke-width:1.0;" width="10" x="550" y="404.7344"/><rect fill="#FFFFFF" height="64.7031" style="stroke:#181818;stroke-width:1.0;" width="10" x="550" y="686.5469"/><rect fill="#FFFFFF" height="48.3516" style="stroke:#181818;stroke-width:1.0;" width="10" x="550" y="1153.1172"/><rect fill="#FFFFFF" height="14" style="stroke:#181818;stroke-width:1.0;" width="10" x="725" y="566.4922"/><rect fill="#FFFFFF" height="14" style="stroke:#181818;stroke-width:1.0;" width="10" x="725" y="949.3594"/><rect fill="#FFFFFF" height="14" style="stroke:#181818;stroke-width:1.0;" width="10" x="725" y="1076.4141"/><rect fill="none" height="1099.8984" style="stroke:#000000;stroke-width:1.5;" width="842" x="10" y="123.5703"/><rect fill="none" height="201.1094" style="stroke:#000000;stroke-width:1.5;" width="557" x="91" y="148.9219"/><rect fill="none" height="79.0547" style="stroke:#000000;stroke-width:1.5;" width="484" x="164" y="364.0313"/><rect fill="none" height="759.3828" style="stroke:#000000;stroke-width:1.5;" width="822" x="20" y="457.0859"/><rect fill="none" height="106.0547" style="stroke:#000000;stroke-width:1.5;" width="658" x="164" y="482.4375"/><rect fill="none" height="156.7578" style="stroke:#000000;stroke-width:1.5;" width="618" x="30" y="602.4922"/><rect fill="none" height="52.7031" style="stroke:#000000;stroke-width:1.5;" width="248" x="90" y="773.25"/><rect fill="none" height="138.4063" style="stroke:#000000;stroke-width:1.5;" width="678" x="154" y="839.9531"/><rect fill="none" height="106.0547" style="stroke:#000000;stroke-width:1.5;" width="658" x="164" y="865.3047"/><rect fill="none" height="106.0547" style="stroke:#000000;stroke-width:1.5;" width="658" x="164" y="992.3594"/><rect fill="none" height="97.0547" style="stroke:#000000;stroke-width:1.5;" width="484" x="164" y="1112.4141"/><line style="stroke:#181818;stroke-width:0.5;stroke-dasharray:5.0,5.0;" x1="214" x2="214" y1="76.2188" y2="1270.8203"/><line style="stroke:#181818;stroke-width:0.5;stroke-dasharray:5.0,5.0;" x1="413" x2="413" y1="76.2188" y2="1270.8203"/><line style="stroke:#181818;stroke-width:0.5;stroke-dasharray:5.0,5.0;" x1="555" x2="555" y1="76.2188" y2="1270.8203"/><line style="stroke:#181818;stroke-width:0.5;stroke-dasharray:5.0,5.0;" x1="730" x2="730" y1="76.2188" y2="1270.8203"/><rect fill="#E2E2F0" height="31.6094" rx="2.5" ry="2.5" style="stroke:#181818;stroke-width:0.5;" width="80" x="174" y="43.6094"/><text fill="#000000" font-family="sans-serif" font-size="14" lengthAdjust="spacing" textLength="66" x="181" y="65.1426">my_widget</text><rect fill="#E2E2F0" height="31.6094" rx="2.5" ry="2.5" style="stroke:#181818;stroke-width:0.5;" width="98" x="364" y="43.6094"/><text fill="#000000" font-family="sans-serif" font-size="14" lengthAdjust="spacing" textLength="84" x="371" y="65.1426">system_clock</text><rect fill="#E2E2F0" height="31.6094" rx="2.5" ry="2.5" style="stroke:#181818;stroke-width:0.5;" width="166" x="472" y="43.6094"/><text fill="#000000" font-family="sans-serif" font-size="14" lengthAdjust="spacing" textLength="152" x="479" y="65.1426">actual_displayed_model</text><rect fill="#E2E2F0" height="31.6094" rx="2.5" ry="2.5" style="stroke:#181818;stroke-width:0.5;" width="164" x="648" y="43.6094"/><text fill="#000000" font-family="sans-serif" font-size="14" lengthAdjust="spacing" textLength="150" x="655" y="65.1426">graphic_display_screen</text><rect fill="#FFFFFF" height="144.4063" style="stroke:#181818;stroke-width:1.0;" width="10" x="209" y="197.625"/><rect fill="#FFFFFF" height="49.3516" style="stroke:#181818;stroke-width:1.0;" width="10" x="209" y="531.1406"/><rect fill="#FFFFFF" height="100.0547" style="stroke:#181818;stroke-width:1.0;" width="10" x="209" y="651.1953"/><rect fill="#FFFFFF" height="49.3516" style="stroke:#181818;stroke-width:1.0;" width="10" x="209" y="914.0078"/><rect fill="#FFFFFF" height="49.3516" style="stroke:#181818;stroke-width:1.0;" width="10" x="209" y="1041.0625"/><rect fill="#FFFFFF" height="30.3516" style="stroke:#181818;stroke-width:1.0;" width="10" x="408" y="267.3281"/><rect fill="#FFFFFF" height="14" style="stroke:#181818;stroke-width:1.0;" width="10" x="550" y="328.0313"/><rect fill="#FFFFFF" height="30.3516" style="stroke:#181818;stroke-width:1.0;" width="10" x="550" y="404.7344"/><rect fill="#FFFFFF" height="64.7031" style="stroke:#181818;stroke-width:1.0;" width="10" x="550" y="686.5469"/><rect fill="#FFFFFF" height="48.3516" style="stroke:#181818;stroke-width:1.0;" width="10" x="550" y="1153.1172"/><rect fill="#FFFFFF" height="14" style="stroke:#181818;stroke-width:1.0;" width="10" x="725" y="566.4922"/><rect fill="#FFFFFF" height="14" style="stroke:#181818;stroke-width:1.0;" width="10" x="725" y="949.3594"/><rect fill="#FFFFFF" height="14" style="stroke:#181818;stroke-width:1.0;" width="10" x="725" y="1076.4141"/><polygon fill="#181818" points="202,104.5703,212,108.5703,202,112.5703" style="stroke:#181818;stroke-width:1.0;"/><line style="stroke:#181818;stroke-width:1.0;" x1="0" x2="208" y1="108.5703" y2="108.5703"/><text fill="#000000" font-family="sans-serif" font-size="13" lengthAdjust="spacing" textLength="35" x="89.5" y="103.7139">draw()</text><path d="M10,123.5703 L83,123.5703 L83,131.9219 L73,141.9219 L10,141.9219 L10,123.5703 " fill="#EEEEEE" style="stroke:#000000;stroke-width:1.5;"/><rect fill="none" height="1099.8984" style="stroke:#000000;stroke-width:1.5;" width="842" x="10" y="123.5703"/><text fill="#000000" font-family="sans-serif" font-size="13" font-weight="bold" lengthAdjust="spacing" textLength="28" x="25" y="138.0654">loop</text><text fill="#000000" font-family="sans-serif" font-size="11" font-weight="bold" lengthAdjust="spacing" textLength="94" x="98" y="136.9893">[for each widget]</text><path d="M91,148.9219 L228,148.9219 L228,157.2734 L218,167.2734 L91,167.2734 L91,148.9219 " fill="#EEEEEE" style="stroke:#000000;stroke-width:1.5;"/><rect fill="none" height="201.1094" style="stroke:#000000;stroke-width:1.5;" width="557" x="91" y="148.9219"/><text fill="#000000" font-family="sans-serif" font-size="13" font-weight="bold" lengthAdjust="spacing" textLength="92" x="106" y="163.417">check blinking</text><line style="stroke:#181818;stroke-width:1.0;" x1="214" x2="261" y1="184.625" y2="184.625"/><line style="stroke:#181818;stroke-width:1.0;" x1="261" x2="261" y1="184.625" y2="197.625"/><line style="stroke:#181818;stroke-width:1.0;" x1="220" x2="261" y1="197.625" y2="197.625"/><polygon fill="#181818" points="230,193.625,220,197.625,230,201.625" style="stroke:#181818;stroke-width:1.0;"/><text fill="#000000" font-family="sans-serif" font-size="13" lengthAdjust="spacing" textLength="81" x="226" y="179.7686">blink_refresh()</text><rect fill="#FEFFDD" height="24" style="stroke:#181818;stroke-width:0.5;" width="226" x="101" y="215.625"/><text fill="#000000" font-family="sans-serif" font-size="13" lengthAdjust="spacing" textLength="218" x="105" y="233.1201">specific to widget with blinking feature</text><polygon fill="#181818" points="396,263.3281,406,267.3281,396,271.3281" style="stroke:#181818;stroke-width:1.0;"/><line style="stroke:#181818;stroke-width:1.0;" x1="219" x2="402" y1="267.3281" y2="267.3281"/><text fill="#000000" font-family="sans-serif" font-size="13" lengthAdjust="spacing" textLength="170" x="228.5" y="262.4717">blinking_phase_has_changed</text><polygon fill="#181818" points="230,293.6797,220,297.6797,230,301.6797" style="stroke:#181818;stroke-width:1.0;"/><line style="stroke:#181818;stroke-width:1.0;" x1="224" x2="412" y1="297.6797" y2="297.6797"/><text fill="#000000" font-family="sans-serif" font-size="13" lengthAdjust="spacing" textLength="118" x="257" y="292.8232">phase_changed_flag</text><polygon fill="#181818" points="538,324.0313,548,328.0313,538,332.0313" style="stroke:#181818;stroke-width:1.0;"/><line style="stroke:#181818;stroke-width:1.0;" x1="219" x2="544" y1="328.0313" y2="328.0313"/><text fill="#000000" font-family="sans-serif" font-size="13" lengthAdjust="spacing" textLength="94" x="337.5" y="323.1748">set_change_flag</text><polygon fill="#181818" points="225,338.0313,215,342.0313,225,346.0313" style="stroke:#181818;stroke-width:1.0;"/><line style="stroke:#181818;stroke-width:1.0;stroke-dasharray:2.0,2.0;" x1="219" x2="554" y1="342.0313" y2="342.0313"/><path d="M164,364.0313 L387,364.0313 L387,372.3828 L377,382.3828 L164,382.3828 L164,364.0313 " fill="#EEEEEE" style="stroke:#000000;stroke-width:1.5;"/><rect fill="none" height="79.0547" style="stroke:#000000;stroke-width:1.5;" width="484" x="164" y="364.0313"/><text fill="#000000" font-family="sans-serif" font-size="13" font-weight="bold" lengthAdjust="spacing" textLength="178" x="179" y="378.5264">check if model has changed</text><polygon fill="#181818" points="538,400.7344,548,404.7344,538,408.7344" style="stroke:#181818;stroke-width:1.0;"/><line style="stroke:#181818;stroke-width:1.0;" x1="214" x2="544" y1="404.7344" y2="404.7344"/><text fill="#000000" font-family="sans-serif" font-size="13" lengthAdjust="spacing" textLength="85" x="339.5" y="399.8779">has_changed()</text><polygon fill="#181818" points="225,431.0859,215,435.0859,225,439.0859" style="stroke:#181818;stroke-width:1.0;"/><line style="stroke:#181818;stroke-width:1.0;" x1="219" x2="554" y1="435.0859" y2="435.0859"/><text fill="#000000" font-family="sans-serif" font-size="13" lengthAdjust="spacing" textLength="69" x="350" y="430.2295">change_flag</text><path d="M20,457.0859 L81,457.0859 L81,465.4375 L71,475.4375 L20,475.4375 L20,457.0859 " fill="#EEEEEE" style="stroke:#000000;stroke-width:1.5;"/><rect fill="none" height="759.3828" style="stroke:#000000;stroke-width:1.5;" width="822" x="20" y="457.0859"/><text fill="#000000" font-family="sans-serif" font-size="13" font-weight="bold" lengthAdjust="spacing" textLength="16" x="35" y="471.5811">alt</text><text fill="#000000" font-family="sans-serif" font-size="11" font-weight="bold" lengthAdjust="spacing" textLength="95" x="96" y="470.5049">[change_flag != 0]</text><path d="M164,482.4375 L318,482.4375 L318,490.7891 L308,500.7891 L164,500.7891 L164,482.4375 " fill="#EEEEEE" style="stroke:#000000;stroke-width:1.5;"/><rect fill="none" height="106.0547" style="stroke:#000000;stroke-width:1.5;" width="658" x="164" y="482.4375"/><text fill="#000000" font-family="sans-serif" font-size="13" font-weight="bold" lengthAdjust="spacing" textLength="109" x="179" y="496.9326">clear pixel buffer</text><line style="stroke:#181818;stroke-width:1.0;" x1="214" x2="261" y1="518.1406" y2="518.1406"/><line style="stroke:#181818;stroke-width:1.0;" x1="261" x2="261" y1="518.1406" y2="531.1406"/><line style="stroke:#181818;stroke-width:1.0;" x1="220" x2="261" y1="531.1406" y2="531.1406"/><polygon fill="#181818" points="230,527.1406,220,531.1406,230,535.1406" style="stroke:#181818;stroke-width:1.0;"/><text fill="#000000" font-family="sans-serif" font-size="13" lengthAdjust="spacing" textLength="108" x="226" y="513.2842">clear_pixel_buffer()</text><polygon fill="#181818" points="713,562.4922,723,566.4922,713,570.4922" style="stroke:#181818;stroke-width:1.0;"/><line style="stroke:#181818;stroke-width:1.0;" x1="219" x2="719" y1="566.4922" y2="566.4922"/><text fill="#000000" font-family="sans-serif" font-size="13" lengthAdjust="spacing" textLength="183" x="380.5" y="561.6357">clear_pixel_buffer(&amp;pixel_frame)</text><polygon fill="#181818" points="225,576.4922,215,580.4922,225,584.4922" style="stroke:#181818;stroke-width:1.0;"/><line style="stroke:#181818;stroke-width:1.0;stroke-dasharray:2.0,2.0;" x1="219" x2="729" y1="580.4922" y2="580.4922"/><path d="M30,602.4922 L278,602.4922 L278,610.8438 L268,620.8438 L30,620.8438 L30,602.4922 " fill="#EEEEEE" style="stroke:#000000;stroke-width:1.5;"/><rect fill="none" height="156.7578" style="stroke:#000000;stroke-width:1.5;" width="618" x="30" y="602.4922"/><text fill="#000000" font-family="sans-serif" font-size="13" font-weight="bold" lengthAdjust="spacing" textLength="203" x="45" y="616.9873">get value of interest from model</text><line style="stroke:#181818;stroke-width:1.0;" x1="214" x2="261" y1="638.1953" y2="638.1953"/><line style="stroke:#181818;stroke-width:1.0;" x1="261" x2="261" y1="638.1953" y2="651.1953"/><line style="stroke:#181818;stroke-width:1.0;" x1="220" x2="261" y1="651.1953" y2="651.1953"/><polygon fill="#181818" points="230,647.1953,220,651.1953,230,655.1953" style="stroke:#181818;stroke-width:1.0;"/><text fill="#000000" font-family="sans-serif" font-size="13" lengthAdjust="spacing" textLength="129" x="226" y="633.3389">get_value_of_interest()</text><polygon fill="#181818" points="538,682.5469,548,686.5469,538,690.5469" style="stroke:#181818;stroke-width:1.0;"/><line style="stroke:#181818;stroke-width:1.0;" x1="219" x2="544" y1="686.5469" y2="686.5469"/><text fill="#000000" font-family="sans-serif" font-size="13" lengthAdjust="spacing" textLength="173" x="298" y="681.6904">read values and process them</text><rect fill="#FEFFDD" height="24" style="stroke:#181818;stroke-width:0.5;" width="348" x="40" y="699.5469"/><text fill="#000000" font-family="sans-serif" font-size="13" lengthAdjust="spacing" textLength="340" x="44" y="717.042">specific to the implemented widget and the attached model</text><polygon fill="#181818" points="225,747.25,215,751.25,225,755.25" style="stroke:#181818;stroke-width:1.0;"/><line style="stroke:#181818;stroke-width:1.0;" x1="219" x2="554" y1="751.25" y2="751.25"/><text fill="#000000" font-family="sans-serif" font-size="13" lengthAdjust="spacing" textLength="36" x="366.5" y="746.3936">values</text><path d="M90,773.25 L234,773.25 L234,781.6016 L224,791.6016 L90,791.6016 L90,773.25 " fill="#EEEEEE" style="stroke:#000000;stroke-width:1.5;"/><rect fill="none" height="52.7031" style="stroke:#000000;stroke-width:1.5;" width="248" x="90" y="773.25"/><text fill="#000000" font-family="sans-serif" font-size="13" font-weight="bold" lengthAdjust="spacing" textLength="99" x="105" y="787.7451">widget drawing</text><rect fill="#FEFFDD" height="24" style="stroke:#181818;stroke-width:0.5;" width="228" x="100" y="796.6016"/><text fill="#000000" font-family="sans-serif" font-size="13" lengthAdjust="spacing" textLength="220" x="104" y="814.0967">specific to the effective widget drawing</text><path d="M154,839.9531 L316,839.9531 L316,848.3047 L306,858.3047 L154,858.3047 L154,839.9531 " fill="#EEEEEE" style="stroke:#000000;stroke-width:1.5;"/><rect fill="none" height="138.4063" style="stroke:#000000;stroke-width:1.5;" width="678" x="154" y="839.9531"/><text fill="#000000" font-family="sans-serif" font-size="13" font-weight="bold" lengthAdjust="spacing" textLength="117" x="169" y="854.4482">draw border if any</text><path d="M164,865.3047 L225,865.3047 L225,873.6563 L215,883.6563 L164,883.6563 L164,865.3047 " fill="#EEEEEE" style="stroke:#000000;stroke-width:1.5;"/><rect fill="none" height="106.0547" style="stroke:#000000;stroke-width:1.5;" width="658" x="164" y="865.3047"/><text fill="#000000" font-family="sans-serif" font-size="13" font-weight="bold" lengthAdjust="spacing" textLength="16" x="179" y="879.7998">alt</text><text fill="#000000" font-family="sans-serif" font-size="11" font-weight="bold" lengthAdjust="spacing" textLength="161" x="240" y="878.7236">[widget_with_border == true]</text><line style="stroke:#181818;stroke-width:1.0;" x1="214" x2="261" y1="901.0078" y2="901.0078"/><line style="stroke:#181818;stroke-width:1.0;" x1="261" x2="261" y1="901.0078" y2="914.0078"/><line style="stroke:#181818;stroke-width:1.0;" x1="220" x2="261" y1="914.0078" y2="914.0078"/><polygon fill="#181818" points="230,910.0078,220,914.0078,230,918.0078" style="stroke:#181818;stroke-width:1.0;"/><text fill="#000000" font-family="sans-serif" font-size="13" lengthAdjust="spacing" textLength="132" x="226" y="896.1514">rect(around the widget)</text><polygon fill="#181818" points="713,945.3594,723,949.3594,713,953.3594" style="stroke:#181818;stroke-width:1.0;"/><line style="stroke:#181818;stroke-width:1.0;" x1="219" x2="719" y1="949.3594" y2="949.3594"/><text fill="#000000" font-family="sans-serif" font-size="13" lengthAdjust="spacing" textLength="53" x="445.5" y="944.5029">pixel(x,y)</text><polygon fill="#181818" points="225,959.3594,215,963.3594,225,967.3594" style="stroke:#181818;stroke-width:1.0;"/><line style="stroke:#181818;stroke-width:1.0;stroke-dasharray:2.0,2.0;" x1="219" x2="729" y1="963.3594" y2="963.3594"/><path d="M164,992.3594 L351,992.3594 L351,1000.7109 L341,1010.7109 L164,1010.7109 L164,992.3594 " fill="#EEEEEE" style="stroke:#000000;stroke-width:1.5;"/><rect fill="none" height="106.0547" style="stroke:#000000;stroke-width:1.5;" width="658" x="164" y="992.3594"/><text fill="#000000" font-family="sans-serif" font-size="13" font-weight="bold" lengthAdjust="spacing" textLength="142" x="179" y="1006.8545">show widget to screen</text><line style="stroke:#181818;stroke-width:1.0;" x1="214" x2="261" y1="1028.0625" y2="1028.0625"/><line style="stroke:#181818;stroke-width:1.0;" x1="261" x2="261" y1="1028.0625" y2="1041.0625"/><line style="stroke:#181818;stroke-width:1.0;" x1="220" x2="261" y1="1041.0625" y2="1041.0625"/><polygon fill="#181818" points="230,1037.0625,220,1041.0625,230,1045.0625" style="stroke:#181818;stroke-width:1.0;"/><text fill="#000000" font-family="sans-serif" font-size="13" lengthAdjust="spacing" textLength="38" x="226" y="1023.2061">show()</text><polygon fill="#181818" points="713,1072.4141,723,1076.4141,713,1080.4141" style="stroke:#181818;stroke-width:1.0;"/><line style="stroke:#181818;stroke-width:1.0;" x1="219" x2="719" y1="1076.4141" y2="1076.4141"/><text fill="#000000" font-family="sans-serif" font-size="13" lengthAdjust="spacing" textLength="226" x="359" y="1071.5576">show(pixel_frame, anchor_x, anchor_y)</text><polygon fill="#181818" points="225,1086.4141,215,1090.4141,225,1094.4141" style="stroke:#181818;stroke-width:1.0;"/><line style="stroke:#181818;stroke-width:1.0;stroke-dasharray:2.0,2.0;" x1="219" x2="729" y1="1090.4141" y2="1090.4141"/><path d="M164,1112.4141 L303,1112.4141 L303,1120.7656 L293,1130.7656 L164,1130.7656 L164,1112.4141 " fill="#EEEEEE" style="stroke:#000000;stroke-width:1.5;"/><rect fill="none" height="97.0547" style="stroke:#000000;stroke-width:1.5;" width="484" x="164" y="1112.4141"/><text fill="#000000" font-family="sans-serif" font-size="13" font-weight="bold" lengthAdjust="spacing" textLength="94" x="179" y="1126.9092">ack draw done</text><polygon fill="#181818" points="538,1149.1172,548,1153.1172,538,1157.1172" style="stroke:#181818;stroke-width:1.0;"/><line style="stroke:#181818;stroke-width:1.0;" x1="214" x2="544" y1="1153.1172" y2="1153.1172"/><text fill="#000000" font-family="sans-serif" font-size="13" lengthAdjust="spacing" textLength="114" x="325" y="1148.2607">ack_widget_drawn()</text><rect fill="#FEFFDD" height="24" style="stroke:#181818;stroke-width:0.5;" width="104" x="503" y="1166.1172"/><text fill="#000000" font-family="sans-serif" font-size="13" lengthAdjust="spacing" textLength="96" x="507" y="1183.6123">change_flag -= 1</text><polygon fill="#181818" points="225,1197.4688,215,1201.4688,225,1205.4688" style="stroke:#181818;stroke-width:1.0;"/><line style="stroke:#181818;stroke-width:1.0;stroke-dasharray:2.0,2.0;" x1="219" x2="554" y1="1201.4688" y2="1201.4688"/><polygon fill="#181818" points="11,1248.8203,1,1252.8203,11,1256.8203" style="stroke:#181818;stroke-width:1.0;"/><line style="stroke:#181818;stroke-width:1.0;" x1="5" x2="213" y1="1252.8203" y2="1252.8203"/><text fill="#000000" font-family="sans-serif" font-size="13" lengthAdjust="spacing" textLength="33" x="90.5" y="1247.9639">return</text><!--SRC=[bLJ1ZjiW4BtxAwQNLLQxbjfhrAoq7z3J7lU020msMWmku2J- -mx6JknKRjn8iHEOD_FcyOQeeq5eCDPEmXwav-SYV6dRSiyR2B6dtH2z5h5hp6pd0tztQ0N-mX1uXUz6LxP16q7G0trHV9PlqFJih6M5SSoyUow0FeLnhWNbF20NDUIGelAkQq7KABxWQBIbKbLnox18z_926OSWvb5v33MbzjP517T2loWSMXHQQG7HZQNe5Ujh3L38O-TnMIlq8MB3X754vrQEubbRyu2C7apKt5OePyYVvH9Pbdl8yMCiKuRVjSL9MswOrA4rlAUGnaaqkMZ0E28pq2DHjOKauQ8-SUhtcgf0AujY8QDMa7CH0vZ8hfGZvdDzzp1haCHTGIrE9JKx9vi8SHFdQ_3j0D-l90ro3ws-KA9ZfnJPPlMyzpcQ3T4iHnEjHNpbULjhCP5aGNX4kmP-olyKkHcV7mgR6QT29suwifa2dOoE8OBohib2t_YKRqlsz6O3aZd59kIwhd-TXaSkS-a0t4felHCqUX1hRBOud-90Dwt1DAGefqb8gT8MZv56aTPp6rjFEnDwfDe8I3T0ckcDR95EAMN5U_pWyvmvBS7HUKcvoEpSzeFXCe2bCMVZxk40qNVuBuDvAhVZb7VK96zjzzZWfztbjN_iffiseNRdgK5gFAURs-Z-rak0_p3-43vp-Yk996hdsUNwQmFVaIodEsMGN3gBiF4MsoVO6CWIsYxlwXNWuYg1yW0_9fQJWEdxEH-KT8GfuWy0]--></g></svg>