<?xml version="1.0" encoding="us-ascii" standalone="no"?><svg xmlns="http://www.w3.org/2000/svg" xmlns:xlink="http://www.w3.org/1999/xlink" contentStyleType="text/css" height="1361px" preserveAspectRatio="none" style="width:827px;height:1361px;background:#FFFFFF;" version="1.1" viewBox="0 0 827 1361" width="827px" zoomAndPan="magnify"><defs/><g><text fill="#000000" font-family="sans-serif" font-size="14" font-weight="bold" lengthAdjust="spacing" textLength="192" x="319" y="29.5332">method : draw with blinking</text><rect fill="#FFFFFF" height="100.0547" style="stroke:#181818;stroke-width:1.0;" width="10" x="199" y="197.625"/><rect fill="#FFFFFF" height="65.7031" style="stroke:#181818;stroke-width:1.0;" width="10" x="199" y="368.3828"/><rect fill="#FFFFFF" height="41.3516" style="stroke:#181818;stroke-width:1.0;" width="10" x="199" y="504.7891"/><rect fill="#FFFFFF" height="25" style="stroke:#181818;stroke-width:1.0;" width="10" x="199" y="548.1406"/><rect fill="#FFFFFF" height="49.3516" style="stroke:#181818;stroke-width:1.0;" width="10" x="199" y="778.0859"/><rect fill="#FFFFFF" height="49.3516" style="stroke:#181818;stroke-width:1.0;" width="10" x="199" y="990.1953"/><rect fill="#FFFFFF" height="49.3516" style="stroke:#181818;stroke-width:1.0;" width="10" x="199" y="1117.25"/><rect fill="#FFFFFF" height="64.7031" style="stroke:#181818;stroke-width:1.0;" width="10" x="401" y="232.9766"/><rect fill="#FFFFFF" height="30.3516" style="stroke:#181818;stroke-width:1.0;" width="10" x="401" y="651.6797"/><rect fill="#FFFFFF" height="48.3516" style="stroke:#181818;stroke-width:1.0;" width="10" x="401" y="1229.3047"/><rect fill="#FFFFFF" height="30.3516" style="stroke:#181818;stroke-width:1.0;" width="10" x="543" y="403.7344"/><rect fill="#FFFFFF" height="14" style="stroke:#181818;stroke-width:1.0;" width="10" x="684" y="813.4375"/><rect fill="#FFFFFF" height="14" style="stroke:#181818;stroke-width:1.0;" width="10" x="684" y="1025.5469"/><rect fill="#FFFFFF" height="14" style="stroke:#181818;stroke-width:1.0;" width="10" x="684" y="1152.6016"/><rect fill="none" height="1183.0859" style="stroke:#000000;stroke-width:1.5;" width="811" x="10" y="123.5703"/><rect fill="none" height="156.7578" style="stroke:#000000;stroke-width:1.5;" width="479" x="20" y="148.9219"/><rect fill="none" height="122.4063" style="stroke:#000000;stroke-width:1.5;" width="453" x="154" y="319.6797"/><rect fill="none" height="843.5703" style="stroke:#000000;stroke-width:1.5;" width="751" x="60" y="456.0859"/><rect fill="none" height="79.0547" style="stroke:#000000;stroke-width:1.5;" width="345" x="154" y="610.9766"/><rect fill="none" height="588.625" style="stroke:#000000;stroke-width:1.5;" width="731" x="70" y="704.0313"/><rect fill="none" height="106.0547" style="stroke:#000000;stroke-width:1.5;" width="627" x="154" y="729.3828"/><rect fill="none" height="52.7031" style="stroke:#000000;stroke-width:1.5;" width="248" x="80" y="849.4375"/><rect fill="none" height="138.4063" style="stroke:#000000;stroke-width:1.5;" width="647" x="144" y="916.1406"/><rect fill="none" height="106.0547" style="stroke:#000000;stroke-width:1.5;" width="627" x="154" y="941.4922"/><rect fill="none" height="106.0547" style="stroke:#000000;stroke-width:1.5;" width="627" x="154" y="1068.5469"/><rect fill="none" height="97.0547" style="stroke:#000000;stroke-width:1.5;" width="345" x="154" y="1188.6016"/><line style="stroke:#181818;stroke-width:0.5;stroke-dasharray:5.0,5.0;" x1="204" x2="204" y1="76.2188" y2="1354.0078"/><line style="stroke:#181818;stroke-width:0.5;stroke-dasharray:5.0,5.0;" x1="406" x2="406" y1="76.2188" y2="1354.0078"/><line style="stroke:#181818;stroke-width:0.5;stroke-dasharray:5.0,5.0;" x1="548" x2="548" y1="76.2188" y2="1354.0078"/><line style="stroke:#181818;stroke-width:0.5;stroke-dasharray:5.0,5.0;" x1="689" x2="689" y1="76.2188" y2="1354.0078"/><rect fill="#E2E2F0" height="31.6094" rx="2.5" ry="2.5" style="stroke:#181818;stroke-width:0.5;" width="80" x="164" y="43.6094"/><text fill="#000000" font-family="sans-serif" font-size="14" lengthAdjust="spacing" textLength="66" x="171" y="65.1426">my_widget</text><rect fill="#E2E2F0" height="31.6094" rx="2.5" ry="2.5" style="stroke:#181818;stroke-width:0.5;" width="166" x="323" y="43.6094"/><text fill="#000000" font-family="sans-serif" font-size="14" lengthAdjust="spacing" textLength="152" x="330" y="65.1426">actual_displayed_model</text><rect fill="#E2E2F0" height="31.6094" rx="2.5" ry="2.5" style="stroke:#181818;stroke-width:0.5;" width="98" x="499" y="43.6094"/><text fill="#000000" font-family="sans-serif" font-size="14" lengthAdjust="spacing" textLength="84" x="506" y="65.1426">system_clock</text><rect fill="#E2E2F0" height="31.6094" rx="2.5" ry="2.5" style="stroke:#181818;stroke-width:0.5;" width="164" x="607" y="43.6094"/><text fill="#000000" font-family="sans-serif" font-size="14" lengthAdjust="spacing" textLength="150" x="614" y="65.1426">graphic_display_screen</text><rect fill="#FFFFFF" height="100.0547" style="stroke:#181818;stroke-width:1.0;" width="10" x="199" y="197.625"/><rect fill="#FFFFFF" height="65.7031" style="stroke:#181818;stroke-width:1.0;" width="10" x="199" y="368.3828"/><rect fill="#FFFFFF" height="41.3516" style="stroke:#181818;stroke-width:1.0;" width="10" x="199" y="504.7891"/><rect fill="#FFFFFF" height="25" style="stroke:#181818;stroke-width:1.0;" width="10" x="199" y="548.1406"/><rect fill="#FFFFFF" height="49.3516" style="stroke:#181818;stroke-width:1.0;" width="10" x="199" y="778.0859"/><rect fill="#FFFFFF" height="49.3516" style="stroke:#181818;stroke-width:1.0;" width="10" x="199" y="990.1953"/><rect fill="#FFFFFF" height="49.3516" style="stroke:#181818;stroke-width:1.0;" width="10" x="199" y="1117.25"/><rect fill="#FFFFFF" height="64.7031" style="stroke:#181818;stroke-width:1.0;" width="10" x="401" y="232.9766"/><rect fill="#FFFFFF" height="30.3516" style="stroke:#181818;stroke-width:1.0;" width="10" x="401" y="651.6797"/><rect fill="#FFFFFF" height="48.3516" style="stroke:#181818;stroke-width:1.0;" width="10" x="401" y="1229.3047"/><rect fill="#FFFFFF" height="30.3516" style="stroke:#181818;stroke-width:1.0;" width="10" x="543" y="403.7344"/><rect fill="#FFFFFF" height="14" style="stroke:#181818;stroke-width:1.0;" width="10" x="684" y="813.4375"/><rect fill="#FFFFFF" height="14" style="stroke:#181818;stroke-width:1.0;" width="10" x="684" y="1025.5469"/><rect fill="#FFFFFF" height="14" style="stroke:#181818;stroke-width:1.0;" width="10" x="684" y="1152.6016"/><polygon fill="#181818" points="192,104.5703,202,108.5703,192,112.5703" style="stroke:#181818;stroke-width:1.0;"/><line style="stroke:#181818;stroke-width:1.0;" x1="0" x2="198" y1="108.5703" y2="108.5703"/><text fill="#000000" font-family="sans-serif" font-size="13" lengthAdjust="spacing" textLength="35" x="84.5" y="103.7139">draw()</text><path d="M10,123.5703 L83,123.5703 L83,131.9219 L73,141.9219 L10,141.9219 L10,123.5703 " fill="#EEEEEE" style="stroke:#000000;stroke-width:1.5;"/><rect fill="none" height="1183.0859" style="stroke:#000000;stroke-width:1.5;" width="811" x="10" y="123.5703"/><text fill="#000000" font-family="sans-serif" font-size="13" font-weight="bold" lengthAdjust="spacing" textLength="28" x="25" y="138.0654">loop</text><text fill="#000000" font-family="sans-serif" font-size="11" font-weight="bold" lengthAdjust="spacing" textLength="94" x="98" y="136.9893">[for each widget]</text><path d="M20,148.9219 L268,148.9219 L268,157.2734 L258,167.2734 L20,167.2734 L20,148.9219 " fill="#EEEEEE" style="stroke:#000000;stroke-width:1.5;"/><rect fill="none" height="156.7578" style="stroke:#000000;stroke-width:1.5;" width="479" x="20" y="148.9219"/><text fill="#000000" font-family="sans-serif" font-size="13" font-weight="bold" lengthAdjust="spacing" textLength="203" x="35" y="163.417">get value of interest from model</text><line style="stroke:#181818;stroke-width:1.0;" x1="204" x2="251" y1="184.625" y2="184.625"/><line style="stroke:#181818;stroke-width:1.0;" x1="251" x2="251" y1="184.625" y2="197.625"/><line style="stroke:#181818;stroke-width:1.0;" x1="210" x2="251" y1="197.625" y2="197.625"/><polygon fill="#181818" points="220,193.625,210,197.625,220,201.625" style="stroke:#181818;stroke-width:1.0;"/><text fill="#000000" font-family="sans-serif" font-size="13" lengthAdjust="spacing" textLength="129" x="216" y="179.7686">get_value_of_interest()</text><polygon fill="#181818" points="389,228.9766,399,232.9766,389,236.9766" style="stroke:#181818;stroke-width:1.0;"/><line style="stroke:#181818;stroke-width:1.0;" x1="209" x2="395" y1="232.9766" y2="232.9766"/><text fill="#000000" font-family="sans-serif" font-size="13" lengthAdjust="spacing" textLength="173" x="218.5" y="228.1201">read values and process them</text><rect fill="#FEFFDD" height="24" style="stroke:#181818;stroke-width:0.5;" width="348" x="30" y="245.9766"/><text fill="#000000" font-family="sans-serif" font-size="13" lengthAdjust="spacing" textLength="340" x="34" y="263.4717">specific to the implemented widget and the attached model</text><polygon fill="#181818" points="215,293.6797,205,297.6797,215,301.6797" style="stroke:#181818;stroke-width:1.0;"/><line style="stroke:#181818;stroke-width:1.0;" x1="209" x2="405" y1="297.6797" y2="297.6797"/><text fill="#000000" font-family="sans-serif" font-size="13" lengthAdjust="spacing" textLength="36" x="287" y="292.8232">values</text><path d="M154,319.6797 L291,319.6797 L291,328.0313 L281,338.0313 L154,338.0313 L154,319.6797 " fill="#EEEEEE" style="stroke:#000000;stroke-width:1.5;"/><rect fill="none" height="122.4063" style="stroke:#000000;stroke-width:1.5;" width="453" x="154" y="319.6797"/><text fill="#000000" font-family="sans-serif" font-size="13" font-weight="bold" lengthAdjust="spacing" textLength="92" x="169" y="334.1748">check blinking</text><line style="stroke:#181818;stroke-width:1.0;" x1="204" x2="251" y1="355.3828" y2="355.3828"/><line style="stroke:#181818;stroke-width:1.0;" x1="251" x2="251" y1="355.3828" y2="368.3828"/><line style="stroke:#181818;stroke-width:1.0;" x1="210" x2="251" y1="368.3828" y2="368.3828"/><polygon fill="#181818" points="220,364.3828,210,368.3828,220,372.3828" style="stroke:#181818;stroke-width:1.0;"/><text fill="#000000" font-family="sans-serif" font-size="13" lengthAdjust="spacing" textLength="151" x="216" y="350.5264">compute_blinking_phase()</text><polygon fill="#181818" points="531,399.7344,541,403.7344,531,407.7344" style="stroke:#181818;stroke-width:1.0;"/><line style="stroke:#181818;stroke-width:1.0;" x1="209" x2="537" y1="403.7344" y2="403.7344"/><text fill="#000000" font-family="sans-serif" font-size="13" lengthAdjust="spacing" textLength="94" x="329" y="398.8779">get system time</text><polygon fill="#181818" points="215,430.0859,205,434.0859,215,438.0859" style="stroke:#181818;stroke-width:1.0;"/><line style="stroke:#181818;stroke-width:1.0;" x1="209" x2="547" y1="434.0859" y2="434.0859"/><text fill="#000000" font-family="sans-serif" font-size="13" lengthAdjust="spacing" textLength="201" x="275.5" y="429.2295">blink_phase_changed = true | false</text><path d="M60,456.0859 L121,456.0859 L121,464.4375 L111,474.4375 L60,474.4375 L60,456.0859 " fill="#EEEEEE" style="stroke:#000000;stroke-width:1.5;"/><rect fill="none" height="843.5703" style="stroke:#000000;stroke-width:1.5;" width="751" x="60" y="456.0859"/><text fill="#000000" font-family="sans-serif" font-size="13" font-weight="bold" lengthAdjust="spacing" textLength="16" x="75" y="470.5811">alt</text><text fill="#000000" font-family="sans-serif" font-size="11" font-weight="bold" lengthAdjust="spacing" textLength="163" x="136" y="469.5049">[blink_phase_changed = true]</text><line style="stroke:#181818;stroke-width:1.0;" x1="209" x2="251" y1="496.7891" y2="496.7891"/><line style="stroke:#181818;stroke-width:1.0;" x1="251" x2="251" y1="496.7891" y2="509.7891"/><line style="stroke:#181818;stroke-width:1.0;" x1="210" x2="251" y1="509.7891" y2="509.7891"/><polygon fill="#181818" points="220,505.7891,210,509.7891,220,513.7891" style="stroke:#181818;stroke-width:1.0;"/><text fill="#000000" font-family="sans-serif" font-size="13" lengthAdjust="spacing" textLength="126" x="216" y="491.9326">make the widget blink</text><line style="stroke:#181818;stroke-width:1.0;" x1="214" x2="256" y1="540.1406" y2="540.1406"/><line style="stroke:#181818;stroke-width:1.0;" x1="256" x2="256" y1="540.1406" y2="553.1406"/><line style="stroke:#181818;stroke-width:1.0;" x1="215" x2="256" y1="553.1406" y2="553.1406"/><polygon fill="#181818" points="225,549.1406,215,553.1406,225,557.1406" style="stroke:#181818;stroke-width:1.0;"/><text fill="#000000" font-family="sans-serif" font-size="13" lengthAdjust="spacing" textLength="157" x="221" y="535.2842">clear blink_phase_changed</text><line style="stroke:#181818;stroke-width:1.0;stroke-dasharray:2.0,2.0;" x1="209" x2="251" y1="572.1406" y2="572.1406"/><line style="stroke:#181818;stroke-width:1.0;stroke-dasharray:2.0,2.0;" x1="251" x2="251" y1="572.1406" y2="585.1406"/><line style="stroke:#181818;stroke-width:1.0;stroke-dasharray:2.0,2.0;" x1="204" x2="251" y1="585.1406" y2="585.1406"/><polygon fill="#181818" points="214,581.1406,204,585.1406,214,589.1406" style="stroke:#181818;stroke-width:1.0;"/><line style="stroke:#000000;stroke-width:1.0;stroke-dasharray:2.0,2.0;" x1="60" x2="811" y1="589.1406" y2="589.1406"/><text fill="#000000" font-family="sans-serif" font-size="11" font-weight="bold" lengthAdjust="spacing" textLength="167" x="65" y="600.5596">[blink_phase_changed = false]</text><path d="M154,610.9766 L377,610.9766 L377,619.3281 L367,629.3281 L154,629.3281 L154,610.9766 " fill="#EEEEEE" style="stroke:#000000;stroke-width:1.5;"/><rect fill="none" height="79.0547" style="stroke:#000000;stroke-width:1.5;" width="345" x="154" y="610.9766"/><text fill="#000000" font-family="sans-serif" font-size="13" font-weight="bold" lengthAdjust="spacing" textLength="178" x="169" y="625.4717">check if model has changed</text><polygon fill="#181818" points="389,647.6797,399,651.6797,389,655.6797" style="stroke:#181818;stroke-width:1.0;"/><line style="stroke:#181818;stroke-width:1.0;" x1="204" x2="395" y1="651.6797" y2="651.6797"/><text fill="#000000" font-family="sans-serif" font-size="13" lengthAdjust="spacing" textLength="85" x="260" y="646.8232">has_changed()</text><polygon fill="#181818" points="215,678.0313,205,682.0313,215,686.0313" style="stroke:#181818;stroke-width:1.0;"/><line style="stroke:#181818;stroke-width:1.0;" x1="209" x2="405" y1="682.0313" y2="682.0313"/><text fill="#000000" font-family="sans-serif" font-size="13" lengthAdjust="spacing" textLength="69" x="270.5" y="677.1748">change_flag</text><path d="M70,704.0313 L131,704.0313 L131,712.3828 L121,722.3828 L70,722.3828 L70,704.0313 " fill="#EEEEEE" style="stroke:#000000;stroke-width:1.5;"/><rect fill="none" height="588.625" style="stroke:#000000;stroke-width:1.5;" width="731" x="70" y="704.0313"/><text fill="#000000" font-family="sans-serif" font-size="13" font-weight="bold" lengthAdjust="spacing" textLength="16" x="85" y="718.5264">alt</text><text fill="#000000" font-family="sans-serif" font-size="11" font-weight="bold" lengthAdjust="spacing" textLength="95" x="146" y="717.4502">[change_flag != 0]</text><path d="M154,729.3828 L308,729.3828 L308,737.7344 L298,747.7344 L154,747.7344 L154,729.3828 " fill="#EEEEEE" style="stroke:#000000;stroke-width:1.5;"/><rect fill="none" height="106.0547" style="stroke:#000000;stroke-width:1.5;" width="627" x="154" y="729.3828"/><text fill="#000000" font-family="sans-serif" font-size="13" font-weight="bold" lengthAdjust="spacing" textLength="109" x="169" y="743.8779">clear pixel buffer</text><line style="stroke:#181818;stroke-width:1.0;" x1="204" x2="251" y1="765.0859" y2="765.0859"/><line style="stroke:#181818;stroke-width:1.0;" x1="251" x2="251" y1="765.0859" y2="778.0859"/><line style="stroke:#181818;stroke-width:1.0;" x1="210" x2="251" y1="778.0859" y2="778.0859"/><polygon fill="#181818" points="220,774.0859,210,778.0859,220,782.0859" style="stroke:#181818;stroke-width:1.0;"/><text fill="#000000" font-family="sans-serif" font-size="13" lengthAdjust="spacing" textLength="108" x="216" y="760.2295">clear_pixel_buffer()</text><polygon fill="#181818" points="672,809.4375,682,813.4375,672,817.4375" style="stroke:#181818;stroke-width:1.0;"/><line style="stroke:#181818;stroke-width:1.0;" x1="209" x2="678" y1="813.4375" y2="813.4375"/><text fill="#000000" font-family="sans-serif" font-size="13" lengthAdjust="spacing" textLength="183" x="355" y="808.5811">clear_pixel_buffer(&amp;pixel_frame)</text><polygon fill="#181818" points="215,823.4375,205,827.4375,215,831.4375" style="stroke:#181818;stroke-width:1.0;"/><line style="stroke:#181818;stroke-width:1.0;stroke-dasharray:2.0,2.0;" x1="209" x2="688" y1="827.4375" y2="827.4375"/><path d="M80,849.4375 L224,849.4375 L224,857.7891 L214,867.7891 L80,867.7891 L80,849.4375 " fill="#EEEEEE" style="stroke:#000000;stroke-width:1.5;"/><rect fill="none" height="52.7031" style="stroke:#000000;stroke-width:1.5;" width="248" x="80" y="849.4375"/><text fill="#000000" font-family="sans-serif" font-size="13" font-weight="bold" lengthAdjust="spacing" textLength="99" x="95" y="863.9326">widget drawing</text><rect fill="#FEFFDD" height="24" style="stroke:#181818;stroke-width:0.5;" width="228" x="90" y="872.7891"/><text fill="#000000" font-family="sans-serif" font-size="13" lengthAdjust="spacing" textLength="220" x="94" y="890.2842">specific to the effective widget drawing</text><path d="M144,916.1406 L306,916.1406 L306,924.4922 L296,934.4922 L144,934.4922 L144,916.1406 " fill="#EEEEEE" style="stroke:#000000;stroke-width:1.5;"/><rect fill="none" height="138.4063" style="stroke:#000000;stroke-width:1.5;" width="647" x="144" y="916.1406"/><text fill="#000000" font-family="sans-serif" font-size="13" font-weight="bold" lengthAdjust="spacing" textLength="117" x="159" y="930.6357">draw border if any</text><path d="M154,941.4922 L215,941.4922 L215,949.8438 L205,959.8438 L154,959.8438 L154,941.4922 " fill="#EEEEEE" style="stroke:#000000;stroke-width:1.5;"/><rect fill="none" height="106.0547" style="stroke:#000000;stroke-width:1.5;" width="627" x="154" y="941.4922"/><text fill="#000000" font-family="sans-serif" font-size="13" font-weight="bold" lengthAdjust="spacing" textLength="16" x="169" y="955.9873">alt</text><text fill="#000000" font-family="sans-serif" font-size="11" font-weight="bold" lengthAdjust="spacing" textLength="161" x="230" y="954.9111">[widget_with_border == true]</text><line style="stroke:#181818;stroke-width:1.0;" x1="204" x2="251" y1="977.1953" y2="977.1953"/><line style="stroke:#181818;stroke-width:1.0;" x1="251" x2="251" y1="977.1953" y2="990.1953"/><line style="stroke:#181818;stroke-width:1.0;" x1="210" x2="251" y1="990.1953" y2="990.1953"/><polygon fill="#181818" points="220,986.1953,210,990.1953,220,994.1953" style="stroke:#181818;stroke-width:1.0;"/><text fill="#000000" font-family="sans-serif" font-size="13" lengthAdjust="spacing" textLength="132" x="216" y="972.3389">rect(around the widget)</text><polygon fill="#181818" points="672,1021.5469,682,1025.5469,672,1029.5469" style="stroke:#181818;stroke-width:1.0;"/><line style="stroke:#181818;stroke-width:1.0;" x1="209" x2="678" y1="1025.5469" y2="1025.5469"/><text fill="#000000" font-family="sans-serif" font-size="13" lengthAdjust="spacing" textLength="53" x="420" y="1020.6904">pixel(x,y)</text><polygon fill="#181818" points="215,1035.5469,205,1039.5469,215,1043.5469" style="stroke:#181818;stroke-width:1.0;"/><line style="stroke:#181818;stroke-width:1.0;stroke-dasharray:2.0,2.0;" x1="209" x2="688" y1="1039.5469" y2="1039.5469"/><path d="M154,1068.5469 L341,1068.5469 L341,1076.8984 L331,1086.8984 L154,1086.8984 L154,1068.5469 " fill="#EEEEEE" style="stroke:#000000;stroke-width:1.5;"/><rect fill="none" height="106.0547" style="stroke:#000000;stroke-width:1.5;" width="627" x="154" y="1068.5469"/><text fill="#000000" font-family="sans-serif" font-size="13" font-weight="bold" lengthAdjust="spacing" textLength="142" x="169" y="1083.042">show widget to screen</text><line style="stroke:#181818;stroke-width:1.0;" x1="204" x2="251" y1="1104.25" y2="1104.25"/><line style="stroke:#181818;stroke-width:1.0;" x1="251" x2="251" y1="1104.25" y2="1117.25"/><line style="stroke:#181818;stroke-width:1.0;" x1="210" x2="251" y1="1117.25" y2="1117.25"/><polygon fill="#181818" points="220,1113.25,210,1117.25,220,1121.25" style="stroke:#181818;stroke-width:1.0;"/><text fill="#000000" font-family="sans-serif" font-size="13" lengthAdjust="spacing" textLength="38" x="216" y="1099.3936">show()</text><polygon fill="#181818" points="672,1148.6016,682,1152.6016,672,1156.6016" style="stroke:#181818;stroke-width:1.0;"/><line style="stroke:#181818;stroke-width:1.0;" x1="209" x2="678" y1="1152.6016" y2="1152.6016"/><text fill="#000000" font-family="sans-serif" font-size="13" lengthAdjust="spacing" textLength="226" x="333.5" y="1147.7451">show(pixel_frame, anchor_x, anchor_y)</text><polygon fill="#181818" points="215,1162.6016,205,1166.6016,215,1170.6016" style="stroke:#181818;stroke-width:1.0;"/><line style="stroke:#181818;stroke-width:1.0;stroke-dasharray:2.0,2.0;" x1="209" x2="688" y1="1166.6016" y2="1166.6016"/><path d="M154,1188.6016 L293,1188.6016 L293,1196.9531 L283,1206.9531 L154,1206.9531 L154,1188.6016 " fill="#EEEEEE" style="stroke:#000000;stroke-width:1.5;"/><rect fill="none" height="97.0547" style="stroke:#000000;stroke-width:1.5;" width="345" x="154" y="1188.6016"/><text fill="#000000" font-family="sans-serif" font-size="13" font-weight="bold" lengthAdjust="spacing" textLength="94" x="169" y="1203.0967">ack draw done</text><polygon fill="#181818" points="389,1225.3047,399,1229.3047,389,1233.3047" style="stroke:#181818;stroke-width:1.0;"/><line style="stroke:#181818;stroke-width:1.0;" x1="204" x2="395" y1="1229.3047" y2="1229.3047"/><text fill="#000000" font-family="sans-serif" font-size="13" lengthAdjust="spacing" textLength="114" x="245.5" y="1224.4482">ack_widget_drawn()</text><rect fill="#FEFFDD" height="24" style="stroke:#181818;stroke-width:0.5;" width="104" x="354" y="1242.3047"/><text fill="#000000" font-family="sans-serif" font-size="13" lengthAdjust="spacing" textLength="96" x="358" y="1259.7998">change_flag -= 1</text><polygon fill="#181818" points="215,1273.6563,205,1277.6563,215,1281.6563" style="stroke:#181818;stroke-width:1.0;"/><line style="stroke:#181818;stroke-width:1.0;stroke-dasharray:2.0,2.0;" x1="209" x2="405" y1="1277.6563" y2="1277.6563"/><polygon fill="#181818" points="11,1332.0078,1,1336.0078,11,1340.0078" style="stroke:#181818;stroke-width:1.0;"/><line style="stroke:#181818;stroke-width:1.0;" x1="5" x2="203" y1="1336.0078" y2="1336.0078"/><text fill="#000000" font-family="sans-serif" font-size="13" lengthAdjust="spacing" textLength="33" x="85.5" y="1331.1514">return</text><!--SRC=[bLHDRzim3BthLt2N8KLhOBi6Iu7zW9rsx45G9TeMgWzFafC6s8yV9TcDtTLP5Y16Ol4zFZvIJ3eP18kfzmhse88umKcd7fwDTY_QTIpISn11M8ZfJB4n1ItJQCtYv2V-6j59_84nYWw_6zqvYow1f0S6nfwQHx1dVjAgmpJbsTqne0yptW_G-W0eP0yrX7N1ZmFauACm8u9lGMSgZ0dQu2rOhz2mDyxcyK9_Vx_FI5wGtBTyHb96GTA5uKh7mOWpAbvuu5i3Qtn0eMhg2C8f68ANL1oa7YqBpYUITCImAYeEA7Mh9IIVuq3RmM2s0TLKLg7AHo8bAfRUrp8sLArCQvhz98WfSYhfeo0HR-SCdPfS8sBvScdWWk9nLIL9bjuEOq8-1_EX5n79fnKedcD2owNnn5jm-Q2-XQGjBiB9oLLubbtOApMNlN0T5Nw05AYllw4L9k9sIKoOT8LWgxgcoLsquWMBtzFRmdCT8WsAy5525Z2DmNsij0moOqYbR8YjPIuRfDlQVQ18c9FSEf-4cSctf_gl-Qa8tXhH5NEpjujtyEa0NzWiiXWnw5SYUXxRbgxnvYHDjl4IpMlq-o7gWXXwBMUHFCg0wBR0d-k_bhOBtbsr_ZBtKwwyM_BSttXBaV9bLdoFBzDNcSjQVFP14HUrJRXpiQu2UDwNV3ezN1_BkbfasWdYdNP1FRhThUBCxlNX_6zVBjx4tf_c0gdmIhTSd-ytGmRyHmjB-A9d3sIIx7tWhs-_Rj0xYHLqEuhboZk4jOQDKSyQ23O5yens97yn0nl0rQM0vW1VPvMpWVFtQNa9Snjpr1y0]--></g></svg>