<?xml version="1.0" encoding="us-ascii" standalone="no"?><svg xmlns="http://www.w3.org/2000/svg" xmlns:xlink="http://www.w3.org/1999/xlink" contentStyleType="text/css" height="1103px" preserveAspectRatio="none" style="width:853px;height:1103px;background:#FFFFFF;" version="1.1" viewBox="0 0 853 1103" width="853px" zoomAndPan="magnify"><defs/><g><text fill="#000000" font-family="sans-serif" font-size="14" font-weight="bold" lengthAdjust="spacing" textLength="99" x="378.5" y="29.5332">method : draw</text><rect fill="#FFFFFF" height="49.3516" style="stroke:#181818;stroke-width:1.0;" width="10" x="209" y="739.6016"/><rect fill="#FFFFFF" height="49.3516" style="stroke:#181818;stroke-width:1.0;" width="10" x="209" y="866.6563"/><rect fill="#FFFFFF" height="30.3516" style="stroke:#181818;stroke-width:1.0;" width="10" x="403" y="223.9766"/><rect fill="#FFFFFF" height="30.3516" style="stroke:#181818;stroke-width:1.0;" width="10" x="545" y="317.0313"/><rect fill="#FFFFFF" height="64.7031" style="stroke:#181818;stroke-width:1.0;" width="10" x="545" y="512.1406"/><rect fill="#FFFFFF" height="48.3516" style="stroke:#181818;stroke-width:1.0;" width="10" x="545" y="978.7109"/><rect fill="#FFFFFF" height="14" style="stroke:#181818;stroke-width:1.0;" width="10" x="720" y="435.4375"/><rect fill="#FFFFFF" height="14" style="stroke:#181818;stroke-width:1.0;" width="10" x="720" y="774.9531"/><rect fill="#FFFFFF" height="14" style="stroke:#181818;stroke-width:1.0;" width="10" x="720" y="902.0078"/><rect fill="none" height="925.4922" style="stroke:#000000;stroke-width:1.5;" width="837" x="10" y="123.5703"/><rect fill="none" height="113.4063" style="stroke:#000000;stroke-width:1.5;" width="376" x="91" y="148.9219"/><rect fill="none" height="79.0547" style="stroke:#000000;stroke-width:1.5;" width="479" x="164" y="276.3281"/><rect fill="none" height="672.6797" style="stroke:#000000;stroke-width:1.5;" width="817" x="20" y="369.3828"/><rect fill="none" height="62.7031" style="stroke:#000000;stroke-width:1.5;" width="653" x="164" y="394.7344"/><rect fill="none" height="113.4063" style="stroke:#000000;stroke-width:1.5;" width="613" x="30" y="471.4375"/><rect fill="none" height="52.7031" style="stroke:#000000;stroke-width:1.5;" width="248" x="90" y="598.8438"/><rect fill="none" height="138.4063" style="stroke:#000000;stroke-width:1.5;" width="673" x="154" y="665.5469"/><rect fill="none" height="106.0547" style="stroke:#000000;stroke-width:1.5;" width="653" x="164" y="690.8984"/><rect fill="none" height="106.0547" style="stroke:#000000;stroke-width:1.5;" width="653" x="164" y="817.9531"/><rect fill="none" height="97.0547" style="stroke:#000000;stroke-width:1.5;" width="479" x="164" y="938.0078"/><line style="stroke:#181818;stroke-width:0.5;stroke-dasharray:5.0,5.0;" x1="214" x2="214" y1="76.2188" y2="1096.4141"/><line style="stroke:#181818;stroke-width:0.5;stroke-dasharray:5.0,5.0;" x1="408" x2="408" y1="76.2188" y2="1096.4141"/><line style="stroke:#181818;stroke-width:0.5;stroke-dasharray:5.0,5.0;" x1="550" x2="550" y1="76.2188" y2="1096.4141"/><line style="stroke:#181818;stroke-width:0.5;stroke-dasharray:5.0,5.0;" x1="725" x2="725" y1="76.2188" y2="1096.4141"/><rect fill="#E2E2F0" height="31.6094" rx="2.5" ry="2.5" style="stroke:#181818;stroke-width:0.5;" width="80" x="174" y="43.6094"/><text fill="#000000" font-family="sans-serif" font-size="14" lengthAdjust="spacing" textLength="66" x="181" y="65.1426">my_widget</text><rect fill="#E2E2F0" height="31.6094" rx="2.5" ry="2.5" style="stroke:#181818;stroke-width:0.5;" width="98" x="359" y="43.6094"/><text fill="#000000" font-family="sans-serif" font-size="14" lengthAdjust="spacing" textLength="84" x="366" y="65.1426">system_clock</text><rect fill="#E2E2F0" height="31.6094" rx="2.5" ry="2.5" style="stroke:#181818;stroke-width:0.5;" width="166" x="467" y="43.6094"/><text fill="#000000" font-family="sans-serif" font-size="14" lengthAdjust="spacing" textLength="152" x="474" y="65.1426">actual_displayed_model</text><rect fill="#E2E2F0" height="31.6094" rx="2.5" ry="2.5" style="stroke:#181818;stroke-width:0.5;" width="164" x="643" y="43.6094"/><text fill="#000000" font-family="sans-serif" font-size="14" lengthAdjust="spacing" textLength="150" x="650" y="65.1426">graphic_display_screen</text><rect fill="#FFFFFF" height="49.3516" style="stroke:#181818;stroke-width:1.0;" width="10" x="209" y="739.6016"/><rect fill="#FFFFFF" height="49.3516" style="stroke:#181818;stroke-width:1.0;" width="10" x="209" y="866.6563"/><rect fill="#FFFFFF" height="30.3516" style="stroke:#181818;stroke-width:1.0;" width="10" x="403" y="223.9766"/><rect fill="#FFFFFF" height="30.3516" style="stroke:#181818;stroke-width:1.0;" width="10" x="545" y="317.0313"/><rect fill="#FFFFFF" height="64.7031" style="stroke:#181818;stroke-width:1.0;" width="10" x="545" y="512.1406"/><rect fill="#FFFFFF" height="48.3516" style="stroke:#181818;stroke-width:1.0;" width="10" x="545" y="978.7109"/><rect fill="#FFFFFF" height="14" style="stroke:#181818;stroke-width:1.0;" width="10" x="720" y="435.4375"/><rect fill="#FFFFFF" height="14" style="stroke:#181818;stroke-width:1.0;" width="10" x="720" y="774.9531"/><rect fill="#FFFFFF" height="14" style="stroke:#181818;stroke-width:1.0;" width="10" x="720" y="902.0078"/><polygon fill="#181818" points="202,104.5703,212,108.5703,202,112.5703" style="stroke:#181818;stroke-width:1.0;"/><line style="stroke:#181818;stroke-width:1.0;" x1="0" x2="208" y1="108.5703" y2="108.5703"/><text fill="#000000" font-family="sans-serif" font-size="13" lengthAdjust="spacing" textLength="35" x="89.5" y="103.7139">draw()</text><path d="M10,123.5703 L83,123.5703 L83,131.9219 L73,141.9219 L10,141.9219 L10,123.5703 " fill="#EEEEEE" style="stroke:#000000;stroke-width:1.5;"/><rect fill="none" height="925.4922" style="stroke:#000000;stroke-width:1.5;" width="837" x="10" y="123.5703"/><text fill="#000000" font-family="sans-serif" font-size="13" font-weight="bold" lengthAdjust="spacing" textLength="28" x="25" y="138.0654">loop</text><text fill="#000000" font-family="sans-serif" font-size="11" font-weight="bold" lengthAdjust="spacing" textLength="94" x="98" y="136.9893">[for each widget]</text><path d="M91,148.9219 L228,148.9219 L228,157.2734 L218,167.2734 L91,167.2734 L91,148.9219 " fill="#EEEEEE" style="stroke:#000000;stroke-width:1.5;"/><rect fill="none" height="113.4063" style="stroke:#000000;stroke-width:1.5;" width="376" x="91" y="148.9219"/><text fill="#000000" font-family="sans-serif" font-size="13" font-weight="bold" lengthAdjust="spacing" textLength="92" x="106" y="163.417">check blinking</text><rect fill="#FEFFDD" height="24" style="stroke:#181818;stroke-width:0.5;" width="226" x="101" y="172.2734"/><text fill="#000000" font-family="sans-serif" font-size="13" lengthAdjust="spacing" textLength="218" x="105" y="189.7686">specific to widget with blinking feature</text><polygon fill="#181818" points="391,219.9766,401,223.9766,391,227.9766" style="stroke:#181818;stroke-width:1.0;"/><line style="stroke:#181818;stroke-width:1.0;" x1="214" x2="397" y1="223.9766" y2="223.9766"/><text fill="#000000" font-family="sans-serif" font-size="13" lengthAdjust="spacing" textLength="170" x="223.5" y="219.1201">blinking_phase_has_changed</text><polygon fill="#181818" points="225,250.3281,215,254.3281,225,258.3281" style="stroke:#181818;stroke-width:1.0;"/><line style="stroke:#181818;stroke-width:1.0;" x1="219" x2="407" y1="254.3281" y2="254.3281"/><text fill="#000000" font-family="sans-serif" font-size="13" lengthAdjust="spacing" textLength="118" x="252" y="249.4717">phase_changed_flag</text><path d="M164,276.3281 L387,276.3281 L387,284.6797 L377,294.6797 L164,294.6797 L164,276.3281 " fill="#EEEEEE" style="stroke:#000000;stroke-width:1.5;"/><rect fill="none" height="79.0547" style="stroke:#000000;stroke-width:1.5;" width="479" x="164" y="276.3281"/><text fill="#000000" font-family="sans-serif" font-size="13" font-weight="bold" lengthAdjust="spacing" textLength="178" x="179" y="290.8232">check if model has changed</text><polygon fill="#181818" points="533,313.0313,543,317.0313,533,321.0313" style="stroke:#181818;stroke-width:1.0;"/><line style="stroke:#181818;stroke-width:1.0;" x1="214" x2="539" y1="317.0313" y2="317.0313"/><text fill="#000000" font-family="sans-serif" font-size="13" lengthAdjust="spacing" textLength="85" x="337" y="312.1748">has_changed()</text><polygon fill="#181818" points="225,343.3828,215,347.3828,225,351.3828" style="stroke:#181818;stroke-width:1.0;"/><line style="stroke:#181818;stroke-width:1.0;" x1="219" x2="549" y1="347.3828" y2="347.3828"/><text fill="#000000" font-family="sans-serif" font-size="13" lengthAdjust="spacing" textLength="69" x="347.5" y="342.5264">change_flag</text><path d="M20,369.3828 L81,369.3828 L81,377.7344 L71,387.7344 L20,387.7344 L20,369.3828 " fill="#EEEEEE" style="stroke:#000000;stroke-width:1.5;"/><rect fill="none" height="672.6797" style="stroke:#000000;stroke-width:1.5;" width="817" x="20" y="369.3828"/><text fill="#000000" font-family="sans-serif" font-size="13" font-weight="bold" lengthAdjust="spacing" textLength="16" x="35" y="383.8779">alt</text><text fill="#000000" font-family="sans-serif" font-size="11" font-weight="bold" lengthAdjust="spacing" textLength="95" x="96" y="382.8018">[change_flag != 0]</text><path d="M164,394.7344 L318,394.7344 L318,403.0859 L308,413.0859 L164,413.0859 L164,394.7344 " fill="#EEEEEE" style="stroke:#000000;stroke-width:1.5;"/><rect fill="none" height="62.7031" style="stroke:#000000;stroke-width:1.5;" width="653" x="164" y="394.7344"/><text fill="#000000" font-family="sans-serif" font-size="13" font-weight="bold" lengthAdjust="spacing" textLength="109" x="179" y="409.2295">clear pixel buffer</text><polygon fill="#181818" points="708,431.4375,718,435.4375,708,439.4375" style="stroke:#181818;stroke-width:1.0;"/><line style="stroke:#181818;stroke-width:1.0;" x1="214" x2="714" y1="435.4375" y2="435.4375"/><text fill="#000000" font-family="sans-serif" font-size="13" lengthAdjust="spacing" textLength="183" x="375.5" y="430.5811">clear_pixel_buffer(&amp;pixel_frame)</text><polygon fill="#181818" points="225,445.4375,215,449.4375,225,453.4375" style="stroke:#181818;stroke-width:1.0;"/><line style="stroke:#181818;stroke-width:1.0;stroke-dasharray:2.0,2.0;" x1="219" x2="724" y1="449.4375" y2="449.4375"/><path d="M30,471.4375 L278,471.4375 L278,479.7891 L268,489.7891 L30,489.7891 L30,471.4375 " fill="#EEEEEE" style="stroke:#000000;stroke-width:1.5;"/><rect fill="none" height="113.4063" style="stroke:#000000;stroke-width:1.5;" width="613" x="30" y="471.4375"/><text fill="#000000" font-family="sans-serif" font-size="13" font-weight="bold" lengthAdjust="spacing" textLength="203" x="45" y="485.9326">get value of interest from model</text><polygon fill="#181818" points="533,508.1406,543,512.1406,533,516.1406" style="stroke:#181818;stroke-width:1.0;"/><line style="stroke:#181818;stroke-width:1.0;" x1="214" x2="539" y1="512.1406" y2="512.1406"/><text fill="#000000" font-family="sans-serif" font-size="13" lengthAdjust="spacing" textLength="129" x="315" y="507.2842">get_value_of_interest()</text><rect fill="#FEFFDD" height="24" style="stroke:#181818;stroke-width:0.5;" width="348" x="40" y="525.1406"/><text fill="#000000" font-family="sans-serif" font-size="13" lengthAdjust="spacing" textLength="340" x="44" y="542.6357">specific to the implemented widget and the attached model</text><polygon fill="#181818" points="225,572.8438,215,576.8438,225,580.8438" style="stroke:#181818;stroke-width:1.0;"/><line style="stroke:#181818;stroke-width:1.0;" x1="219" x2="549" y1="576.8438" y2="576.8438"/><text fill="#000000" font-family="sans-serif" font-size="13" lengthAdjust="spacing" textLength="29" x="367.5" y="571.9873">value</text><path d="M90,598.8438 L234,598.8438 L234,607.1953 L224,617.1953 L90,617.1953 L90,598.8438 " fill="#EEEEEE" style="stroke:#000000;stroke-width:1.5;"/><rect fill="none" height="52.7031" style="stroke:#000000;stroke-width:1.5;" width="248" x="90" y="598.8438"/><text fill="#000000" font-family="sans-serif" font-size="13" font-weight="bold" lengthAdjust="spacing" textLength="99" x="105" y="613.3389">widget drawing</text><rect fill="#FEFFDD" height="24" style="stroke:#181818;stroke-width:0.5;" width="228" x="100" y="622.1953"/><text fill="#000000" font-family="sans-serif" font-size="13" lengthAdjust="spacing" textLength="220" x="104" y="639.6904">specific to the effective widget drawing</text><path d="M154,665.5469 L316,665.5469 L316,673.8984 L306,683.8984 L154,683.8984 L154,665.5469 " fill="#EEEEEE" style="stroke:#000000;stroke-width:1.5;"/><rect fill="none" height="138.4063" style="stroke:#000000;stroke-width:1.5;" width="673" x="154" y="665.5469"/><text fill="#000000" font-family="sans-serif" font-size="13" font-weight="bold" lengthAdjust="spacing" textLength="117" x="169" y="680.042">draw border if any</text><path d="M164,690.8984 L225,690.8984 L225,699.25 L215,709.25 L164,709.25 L164,690.8984 " fill="#EEEEEE" style="stroke:#000000;stroke-width:1.5;"/><rect fill="none" height="106.0547" style="stroke:#000000;stroke-width:1.5;" width="653" x="164" y="690.8984"/><text fill="#000000" font-family="sans-serif" font-size="13" font-weight="bold" lengthAdjust="spacing" textLength="16" x="179" y="705.3936">alt</text><text fill="#000000" font-family="sans-serif" font-size="11" font-weight="bold" lengthAdjust="spacing" textLength="161" x="240" y="704.3174">[widget_with_border == true]</text><line style="stroke:#181818;stroke-width:1.0;" x1="214" x2="261" y1="726.6016" y2="726.6016"/><line style="stroke:#181818;stroke-width:1.0;" x1="261" x2="261" y1="726.6016" y2="739.6016"/><line style="stroke:#181818;stroke-width:1.0;" x1="220" x2="261" y1="739.6016" y2="739.6016"/><polygon fill="#181818" points="230,735.6016,220,739.6016,230,743.6016" style="stroke:#181818;stroke-width:1.0;"/><text fill="#000000" font-family="sans-serif" font-size="13" lengthAdjust="spacing" textLength="132" x="226" y="721.7451">rect(around the widget)</text><polygon fill="#181818" points="708,770.9531,718,774.9531,708,778.9531" style="stroke:#181818;stroke-width:1.0;"/><line style="stroke:#181818;stroke-width:1.0;" x1="219" x2="714" y1="774.9531" y2="774.9531"/><text fill="#000000" font-family="sans-serif" font-size="13" lengthAdjust="spacing" textLength="53" x="443" y="770.0967">pixel(x,y)</text><polygon fill="#181818" points="225,784.9531,215,788.9531,225,792.9531" style="stroke:#181818;stroke-width:1.0;"/><line style="stroke:#181818;stroke-width:1.0;stroke-dasharray:2.0,2.0;" x1="219" x2="724" y1="788.9531" y2="788.9531"/><path d="M164,817.9531 L351,817.9531 L351,826.3047 L341,836.3047 L164,836.3047 L164,817.9531 " fill="#EEEEEE" style="stroke:#000000;stroke-width:1.5;"/><rect fill="none" height="106.0547" style="stroke:#000000;stroke-width:1.5;" width="653" x="164" y="817.9531"/><text fill="#000000" font-family="sans-serif" font-size="13" font-weight="bold" lengthAdjust="spacing" textLength="142" x="179" y="832.4482">show widget to screen</text><line style="stroke:#181818;stroke-width:1.0;" x1="214" x2="261" y1="853.6563" y2="853.6563"/><line style="stroke:#181818;stroke-width:1.0;" x1="261" x2="261" y1="853.6563" y2="866.6563"/><line style="stroke:#181818;stroke-width:1.0;" x1="220" x2="261" y1="866.6563" y2="866.6563"/><polygon fill="#181818" points="230,862.6563,220,866.6563,230,870.6563" style="stroke:#181818;stroke-width:1.0;"/><text fill="#000000" font-family="sans-serif" font-size="13" lengthAdjust="spacing" textLength="38" x="226" y="848.7998">show()</text><polygon fill="#181818" points="708,898.0078,718,902.0078,708,906.0078" style="stroke:#181818;stroke-width:1.0;"/><line style="stroke:#181818;stroke-width:1.0;" x1="219" x2="714" y1="902.0078" y2="902.0078"/><text fill="#000000" font-family="sans-serif" font-size="13" lengthAdjust="spacing" textLength="226" x="356.5" y="897.1514">show(pixel_frame, anchor_x, anchor_y)</text><polygon fill="#181818" points="225,912.0078,215,916.0078,225,920.0078" style="stroke:#181818;stroke-width:1.0;"/><line style="stroke:#181818;stroke-width:1.0;stroke-dasharray:2.0,2.0;" x1="219" x2="724" y1="916.0078" y2="916.0078"/><path d="M164,938.0078 L303,938.0078 L303,946.3594 L293,956.3594 L164,956.3594 L164,938.0078 " fill="#EEEEEE" style="stroke:#000000;stroke-width:1.5;"/><rect fill="none" height="97.0547" style="stroke:#000000;stroke-width:1.5;" width="479" x="164" y="938.0078"/><text fill="#000000" font-family="sans-serif" font-size="13" font-weight="bold" lengthAdjust="spacing" textLength="94" x="179" y="952.5029">ack draw done</text><polygon fill="#181818" points="533,974.7109,543,978.7109,533,982.7109" style="stroke:#181818;stroke-width:1.0;"/><line style="stroke:#181818;stroke-width:1.0;" x1="214" x2="539" y1="978.7109" y2="978.7109"/><text fill="#000000" font-family="sans-serif" font-size="13" lengthAdjust="spacing" textLength="114" x="322.5" y="973.8545">ack_widget_drawn()</text><rect fill="#FEFFDD" height="24" style="stroke:#181818;stroke-width:0.5;" width="104" x="498" y="991.7109"/><text fill="#000000" font-family="sans-serif" font-size="13" lengthAdjust="spacing" textLength="96" x="502" y="1009.2061">change_flag -= 1</text><polygon fill="#181818" points="225,1023.0625,215,1027.0625,225,1031.0625" style="stroke:#181818;stroke-width:1.0;"/><line style="stroke:#181818;stroke-width:1.0;stroke-dasharray:2.0,2.0;" x1="219" x2="549" y1="1027.0625" y2="1027.0625"/><polygon fill="#181818" points="11,1074.4141,1,1078.4141,11,1082.4141" style="stroke:#181818;stroke-width:1.0;"/><line style="stroke:#181818;stroke-width:1.0;" x1="5" x2="213" y1="1078.4141" y2="1078.4141"/><text fill="#000000" font-family="sans-serif" font-size="13" lengthAdjust="spacing" textLength="33" x="90.5" y="1073.5576">return</text><!--SRC=[ZLF1hjiW4Bpp5TjBbIZFKdkDcahl0thgyHqGWRMD7WONS1B_VHUm4pjLAaUAdS3ExEmmH1qDGeUnTGgEeBouil2fRI-yw234aNP3z5h6eJEBdT_uPq0hyHU681fyDxgn7Te8aXxe6VkeVa8tygjM3SQ9URTdG1zcdEkXTXvGo1PA2Mky6tgGBSfFE1jjgLN3l7KHmLtGhyX2ZrBNMa9q4vnUiRtZe4OH1u_i0I8vOGmHEowDav-70z7CvRnlHK1E3ovROHjK2-2FQWMiAWAM-gcMrqOq3ArYR3M4hg5p2WrGCSoyWemKXYiTUYD60fSIQlBeU3WSOQ65N7k1MbbSLSUfoqEGC76v1bzEyEqkqg3mqEiR4Ps7kgP3MxdLUD6tMivDUP0UqMPn6Sepb1VexclvLrCsSCyyalisIoZD4kT5c87EiWQT4e8XGkrTLppQx0kzUIRYhkOp4Jcq8IYnHT1TRp3b5DKS765LtX8nKXff_R-2_h4yYrbCEcsbk6yCS6gEPAAC-eBF-1ohmfoMuEoy8YxAbh1ZFjy2u2d_VDezdI3wuIdzQnyzjTi9ufscBrlxpH78nxsxlOttmrPqcMa2GUFUIRByXpUXTTTvG1gyq3rQFebCDX5WjrrKBby4yOrCagtp_7R_jK7l95RG5SwMAsSHrXfUX2Df8DXKo1FQhhFv0hYwkL2TuFlo2itVZ-LjI4UOAlu2]--></g></svg>